<svg width="126" height="48" viewBox="0 0 126 48" fill="none" xmlns="http://www.w3.org/2000/svg">
<path d="M21.2382 1.89479e-07C20.2913 -0.000252229 19.3616 0.251698 18.5452 0.729764L2.6254 10.0419C1.82738 10.5114 1.1657 11.1797 0.705396 11.9811C0.245087 12.7825 0.00199092 13.6895 0 14.6129L0 33.2933C0.00199092 34.2167 0.245087 35.1237 0.705396 35.9251C1.1657 36.7265 1.82738 37.3948 2.6254 37.8643L18.5452 47.1765C19.3615 47.6548 20.2912 47.907 21.2382 47.907C22.1852 47.907 23.115 47.6548 23.9312 47.1765L39.8494 37.8643C40.6476 37.3949 41.3095 36.7267 41.7701 35.9253C42.2307 35.1238 42.4741 34.2168 42.4764 33.2933V14.6129C42.4741 13.6894 42.2307 12.7824 41.7701 11.981C41.3095 11.1795 40.6476 10.5113 39.8494 10.0419L23.9312 0.729764C23.1147 0.25206 22.1851 0.000136346 21.2382 1.89479e-07Z" fill="white"/>
<path d="M21.2382 0.893372C20.3257 0.89567 19.4304 1.14098 18.645 1.60389L3.3192 10.5615C2.55114 11.0134 1.91427 11.6566 1.47119 12.428C1.0281 13.1993 0.794038 14.0722 0.791992 14.961V32.9453C0.794038 33.834 1.0281 34.7069 1.47119 35.4783C1.91427 36.2496 2.55114 36.8928 3.3192 37.3447L18.645 46.3104C19.431 46.7703 20.3259 47.0128 21.2374 47.0128C22.1489 47.0128 23.0439 46.7703 23.8298 46.3104L39.1557 37.3447C39.9254 36.894 40.5641 36.2513 41.0087 35.4799C41.4532 34.7084 41.6884 33.8348 41.6909 32.9453V14.961C41.6892 14.0722 41.4553 13.1991 41.0121 12.4277C40.569 11.6563 39.932 11.0132 39.1637 10.5615L23.8234 1.60389C23.0378 1.14377 22.1431 0.901234 21.2318 0.901391L21.2382 0.893372Z" fill="white"/>
<path d="M21.2382 4.19896C21.5592 4.19859 21.8743 4.28388 22.1509 4.44596L37.4768 13.4116C37.7476 13.5704 37.9721 13.7968 38.1283 14.0686C38.2844 14.3403 38.3666 14.6479 38.3669 14.961V32.9453C38.3666 33.2583 38.2844 33.5659 38.1283 33.8377C37.9721 34.1094 37.7476 34.3358 37.4768 34.4946L22.1509 43.4651C21.8741 43.6268 21.5591 43.712 21.2382 43.712C20.9174 43.712 20.6023 43.6268 20.3255 43.4651L4.99971 34.4994C4.72857 34.341 4.50374 34.1146 4.34758 33.8428C4.19142 33.571 4.10936 33.2633 4.10956 32.9501V14.961C4.10936 14.6478 4.19142 14.34 4.34758 14.0682C4.50374 13.7964 4.72857 13.57 4.99971 13.4116L20.3255 4.44596C20.6022 4.28388 20.9173 4.19859 21.2382 4.19896ZM21.2382 0.893372C20.3257 0.89567 19.4304 1.14098 18.645 1.60389L3.3192 10.5615C2.55114 11.0134 1.91427 11.6566 1.47119 12.428C1.0281 13.1993 0.794038 14.0722 0.791992 14.961V32.9453C0.794038 33.834 1.0281 34.7069 1.47119 35.4783C1.91427 36.2496 2.55114 36.8928 3.3192 37.3447L18.645 46.3104C19.431 46.7703 20.3259 47.0128 21.2374 47.0128C22.1489 47.0128 23.0439 46.7703 23.8298 46.3104L39.1557 37.3447C39.9254 36.894 40.5641 36.2513 41.0087 35.4799C41.4532 34.7084 41.6884 33.8348 41.6909 32.9453V14.961C41.6892 14.0722 41.4553 13.1991 41.0121 12.4277C40.569 11.6563 39.932 11.0132 39.1637 10.5615L23.8234 1.60389C23.0378 1.14377 22.1431 0.901234 21.2318 0.901391L21.2382 0.893372Z" fill="#3D67AD"/>
<path d="M21.2479 39.9446C20.8187 39.9442 20.4071 39.7743 20.1033 39.4722C19.7995 39.1701 19.6282 38.7603 19.627 38.3327V9.58479C19.627 9.15601 19.7979 8.74479 20.1022 8.4416C20.4065 8.13841 20.8192 7.96808 21.2495 7.96808C21.6798 7.96808 22.0926 8.13841 22.3968 8.4416C22.7011 8.74479 22.8721 9.15601 22.8721 9.58479V38.3327C22.8708 38.7609 22.6991 39.1711 22.3946 39.4733C22.0901 39.7755 21.6777 39.945 21.2479 39.9446Z" fill="#FDD207"/>
<path d="M8.6167 26.3453C8.18637 26.3453 7.77367 26.1749 7.46938 25.8717C7.16509 25.5685 6.99414 25.1573 6.99414 24.7286V16.7701C6.99414 16.3413 7.16509 15.9301 7.46938 15.6269C7.77367 15.3237 8.18637 15.1534 8.6167 15.1534C9.04703 15.1534 9.45974 15.3237 9.76403 15.6269C10.0683 15.9301 10.2393 16.3413 10.2393 16.7701V24.7286C10.2393 25.1573 10.0683 25.5685 9.76403 25.8717C9.45974 26.1749 9.04703 26.3453 8.6167 26.3453Z" fill="#E32439"/>
<path d="M8.6167 32.7592C8.18637 32.7592 7.77367 32.5889 7.46938 32.2857C7.16509 31.9825 6.99414 31.5713 6.99414 31.1425V29.351C6.99414 28.9222 7.16509 28.511 7.46938 28.2078C7.77367 27.9046 8.18637 27.7343 8.6167 27.7343C9.04703 27.7343 9.45974 27.9046 9.76403 28.2078C10.0683 28.511 10.2393 28.9222 10.2393 29.351V31.1473C10.238 31.5752 10.0665 31.9852 9.76233 32.2874C9.45817 32.5895 9.0462 32.7592 8.6167 32.7592Z" fill="#E32439"/>
<path d="M14.9331 36.3519C14.5028 36.3519 14.0901 36.1816 13.7858 35.8784C13.4815 35.5752 13.3105 35.164 13.3105 34.7352V20.3693C13.3105 19.9405 13.4815 19.5293 13.7858 19.2261C14.0901 18.9229 14.5028 18.7526 14.9331 18.7526C15.3634 18.7526 15.7761 18.9229 16.0804 19.2261C16.3847 19.5293 16.5557 19.9405 16.5557 20.3693V34.7416C16.554 35.1693 16.3823 35.5789 16.0782 35.8807C15.7741 36.1825 15.3623 36.3519 14.9331 36.3519Z" fill="#EF8721"/>
<path d="M14.9331 16.5905C14.5028 16.5905 14.0901 16.4202 13.7858 16.117C13.4815 15.8138 13.3105 15.4026 13.3105 14.9738V13.1775C13.3105 12.7487 13.4815 12.3375 13.7858 12.0343C14.0901 11.7311 14.5028 11.5608 14.9331 11.5608C15.3634 11.5608 15.7761 11.7311 16.0804 12.0343C16.3847 12.3375 16.5557 12.7487 16.5557 13.1775V14.9738C16.5557 15.4026 16.3847 15.8138 16.0804 16.117C15.7761 16.4202 15.3634 16.5905 14.9331 16.5905Z" fill="#EF8721"/>
<path d="M27.5547 29.1665C27.1244 29.1665 26.7117 28.9962 26.4074 28.693C26.1031 28.3898 25.9321 27.9786 25.9321 27.5498V13.1775C25.9321 12.9652 25.9741 12.7549 26.0556 12.5588C26.1372 12.3626 26.2567 12.1844 26.4074 12.0343C26.558 11.8842 26.7369 11.7651 26.9338 11.6838C27.1306 11.6026 27.3416 11.5608 27.5547 11.5608C27.7678 11.5608 27.9788 11.6026 28.1756 11.6838C28.3725 11.7651 28.5514 11.8842 28.702 12.0343C28.8527 12.1844 28.9722 12.3626 29.0537 12.5588C29.1353 12.7549 29.1773 12.9652 29.1773 13.1775V27.5498C29.1773 27.9786 29.0063 28.3898 28.702 28.693C28.3977 28.9962 27.985 29.1665 27.5547 29.1665Z" fill="#5FB465"/>
<path d="M27.5547 36.3519C27.1244 36.3519 26.7117 36.1816 26.4074 35.8784C26.1031 35.5752 25.9321 35.164 25.9321 34.7352V32.9389C25.9321 32.7265 25.9741 32.5163 26.0556 32.3202C26.1372 32.124 26.2567 31.9458 26.4074 31.7957C26.558 31.6455 26.7369 31.5265 26.9338 31.4452C27.1306 31.364 27.3416 31.3221 27.5547 31.3221C27.7678 31.3221 27.9788 31.364 28.1756 31.4452C28.3725 31.5265 28.5514 31.6455 28.702 31.7957C28.8527 31.9458 28.9722 32.124 29.0537 32.3202C29.1353 32.5163 29.1773 32.7265 29.1773 32.9389V34.7352C29.1773 35.164 29.0063 35.5752 28.702 35.8784C28.3977 36.1816 27.985 36.3519 27.5547 36.3519Z" fill="#5FB465"/>
<path d="M33.8579 32.7592C33.4277 32.7588 33.0153 32.5883 32.7111 32.2852C32.4069 31.9821 32.2358 31.5712 32.2354 31.1425V23.1841C32.2354 22.7553 32.4063 22.3441 32.7106 22.0409C33.0149 21.7377 33.4276 21.5674 33.8579 21.5674C34.2882 21.5674 34.701 21.7377 35.0052 22.0409C35.3095 22.3441 35.4805 22.7553 35.4805 23.1841V31.1425C35.4805 31.5713 35.3095 31.9825 35.0052 32.2857C34.701 32.5889 34.2882 32.7592 33.8579 32.7592Z" fill="#9B5099"/>
<path d="M33.8579 20.1832C33.4276 20.1832 33.0149 20.0128 32.7106 19.7096C32.4063 19.4065 32.2354 18.9952 32.2354 18.5665V16.7701C32.2354 16.3413 32.4063 15.9301 32.7106 15.6269C33.0149 15.3237 33.4276 15.1534 33.8579 15.1534C34.2882 15.1534 34.701 15.3237 35.0052 15.6269C35.3095 15.9301 35.4805 16.3413 35.4805 16.7701V18.5665C35.4805 18.9952 35.3095 19.4065 35.0052 19.7096C34.701 20.0128 34.2882 20.1832 33.8579 20.1832Z" fill="#9B5099"/>
<path d="M50.3029 14.5231C50.2746 14.4962 50.2521 14.4639 50.2369 14.428C50.2217 14.3921 50.214 14.3535 50.2144 14.3146V6.60636C50.213 6.52541 50.2423 6.44692 50.2965 6.38663C50.324 6.35743 50.3576 6.33445 50.3948 6.31924C50.432 6.30402 50.472 6.29692 50.5122 6.29841H53.6463C54.8267 6.29841 55.7389 6.57749 56.3827 7.13564C57.0266 7.69379 57.3684 8.49572 57.4081 9.54145C57.4162 9.77241 57.421 10.0771 57.421 10.4573C57.421 10.8374 57.421 11.1373 57.4081 11.3586C57.3287 13.5292 56.0946 14.614 53.7058 14.6129H50.5122C50.473 14.6131 50.4342 14.6052 50.3982 14.5898C50.3622 14.5743 50.3297 14.5516 50.3029 14.5231ZM53.6463 12.831C54.1474 12.831 54.5171 12.7118 54.7553 12.4733C54.9936 12.2349 55.1207 11.8553 55.1368 11.3346C55.1529 11.1036 55.161 10.8069 55.161 10.4428C55.161 10.0788 55.1529 9.78524 55.1368 9.56391C55.1207 9.05708 54.9834 8.68284 54.7248 8.44119C54.4661 8.19954 54.0868 8.07925 53.5867 8.08032H52.4599V12.831H53.6463Z" fill="#3D67AD"/>
<path d="M58.8729 14.5231C58.8446 14.4963 58.8221 14.4639 58.8069 14.4281C58.7916 14.3922 58.784 14.3536 58.7844 14.3146V6.59516C58.7829 6.55536 58.79 6.51571 58.8053 6.4789C58.8206 6.44209 58.8436 6.40899 58.8729 6.38185C58.9289 6.32766 59.0041 6.29769 59.0822 6.29845H60.7868C60.8263 6.29687 60.8658 6.30346 60.9026 6.31781C60.9395 6.33216 60.9729 6.35396 61.0009 6.38184C61.0289 6.40971 61.0508 6.44306 61.0652 6.47977C61.0796 6.51649 61.0862 6.55578 61.0846 6.59516V14.3146C61.0852 14.3532 61.078 14.3914 61.0637 14.4272C61.0493 14.463 61.028 14.4956 61.0009 14.5231C60.9737 14.5523 60.9404 14.5752 60.9035 14.5905C60.8666 14.6057 60.8268 14.6128 60.7868 14.6113H59.0757C59.0377 14.6107 59.0003 14.6025 58.9655 14.5874C58.9307 14.5723 58.8992 14.5504 58.8729 14.5231Z" fill="#3D67AD"/>
<path d="M63.4924 13.8928C62.841 13.3346 62.4955 12.537 62.4557 11.4998C62.4472 11.2784 62.4429 10.9181 62.4429 10.4188C62.4429 9.91943 62.4472 9.55535 62.4557 9.32653C62.4858 8.32892 62.8335 7.55478 63.4988 7.00411C64.1642 6.45345 65.064 6.17865 66.1983 6.17972C66.8818 6.1646 67.5612 6.28962 68.1943 6.54701C68.7005 6.74734 69.1475 7.07237 69.4933 7.49169C69.7719 7.82619 69.937 8.23999 69.9649 8.67375C69.9647 8.70829 69.9577 8.74246 69.9442 8.77429C69.9308 8.80612 69.9111 8.835 69.8865 8.85928C69.8618 8.88355 69.8326 8.90275 69.8005 8.91578C69.7684 8.9288 69.734 8.9354 69.6993 8.93518H67.8546C67.7903 8.93849 67.7262 8.92406 67.6695 8.89348C67.6201 8.86059 67.5779 8.81803 67.5456 8.76838C67.4453 8.54186 67.2871 8.34553 67.0868 8.199C66.8244 8.02579 66.5125 7.94247 66.1983 7.96163C65.2754 7.96163 64.7984 8.43638 64.7673 9.38587C64.7592 9.60721 64.756 9.94883 64.756 10.4075C64.756 10.8663 64.756 11.2095 64.7673 11.4404C64.7994 12.4455 65.2824 12.9486 66.216 12.9497C66.6112 12.9707 67.0007 12.8482 67.3122 12.6049C67.5826 12.375 67.7178 12.0264 67.7178 11.5591V11.3458H66.657C66.6161 11.3462 66.5755 11.3385 66.5376 11.3231C66.4997 11.3077 66.4653 11.2849 66.4364 11.2561C66.4075 11.2273 66.3846 11.193 66.3691 11.1552C66.3537 11.1175 66.3459 11.077 66.3464 11.0363V10.1044C66.3459 10.0636 66.3537 10.0232 66.3691 9.98545C66.3846 9.9477 66.4075 9.9134 66.4364 9.88457C66.4653 9.85574 66.4997 9.83296 66.5376 9.81755C66.5755 9.80215 66.6161 9.79443 66.657 9.79486H69.6993C69.7403 9.79428 69.7809 9.80194 69.8188 9.81737C69.8567 9.8328 69.8911 9.8557 69.9199 9.88468C69.9489 9.91335 69.9717 9.94763 69.9869 9.98542C70.0022 10.0232 70.0095 10.0637 70.0084 10.1044V11.4821C70.0264 12.0976 69.863 12.7048 69.5384 13.2288C69.2151 13.7247 68.7528 14.1151 68.2088 14.3515C67.5763 14.62 66.8937 14.7512 66.2063 14.7364C65.0484 14.7321 64.1438 14.4509 63.4924 13.8928Z" fill="#3D67AD"/>
<path d="M71.4136 14.5231C71.3848 14.4966 71.3618 14.4643 71.3463 14.4284C71.3308 14.3925 71.323 14.3537 71.3235 14.3146V6.59516C71.3219 6.5552 71.3291 6.51537 71.3447 6.4785C71.3603 6.44164 71.3838 6.40864 71.4136 6.38185C71.441 6.35499 71.4734 6.3338 71.5091 6.31948C71.5447 6.30517 71.5828 6.29802 71.6213 6.29845H73.3259C73.3655 6.29687 73.4049 6.30346 73.4417 6.31781C73.4786 6.33216 73.5121 6.35396 73.54 6.38184C73.568 6.40971 73.5899 6.44306 73.6043 6.47977C73.6187 6.51649 73.6253 6.55578 73.6237 6.59516V14.3146C73.6243 14.3532 73.6172 14.3914 73.6028 14.4272C73.5884 14.463 73.5671 14.4956 73.54 14.5231C73.5128 14.5523 73.4796 14.5752 73.4426 14.5905C73.4057 14.6057 73.3659 14.6128 73.3259 14.6113H71.6213C71.5824 14.6116 71.544 14.6039 71.5082 14.5887C71.4725 14.5736 71.4403 14.5512 71.4136 14.5231Z" fill="#3D67AD"/>
<path d="M77.1701 14.5295C77.1408 14.5021 77.1177 14.4687 77.1024 14.4316C77.0872 14.3946 77.08 14.3547 77.0815 14.3146V8.23431H74.9889C74.9073 8.23665 74.828 8.20667 74.7684 8.15091C74.7391 8.12377 74.7161 8.09067 74.7008 8.05386C74.6855 8.01705 74.6784 7.9774 74.6799 7.93759V6.60638C74.679 6.5657 74.6864 6.52526 74.7016 6.4875C74.7168 6.44975 74.7396 6.41545 74.7684 6.38668C74.7973 6.35791 74.8317 6.33525 74.8696 6.32009C74.9075 6.30492 74.9481 6.29756 74.9889 6.29843H81.4502C81.4911 6.29726 81.5318 6.30449 81.5697 6.31967C81.6077 6.33485 81.6421 6.35764 81.6708 6.38664C81.7 6.41523 81.7231 6.44946 81.7386 6.48725C81.7541 6.52503 81.7617 6.56557 81.7609 6.60638V7.93759C81.7621 7.97751 81.7546 8.0172 81.7391 8.054C81.7235 8.0908 81.7002 8.12385 81.6708 8.15091C81.6414 8.17866 81.6068 8.20033 81.5689 8.21465C81.531 8.22896 81.4907 8.23565 81.4502 8.23431H79.3576V14.3146C79.3588 14.3548 79.3514 14.3947 79.3359 14.4318C79.3203 14.4688 79.297 14.5022 79.2675 14.5295C79.2075 14.5844 79.1284 14.6138 79.047 14.6113H77.3906C77.3094 14.6128 77.2306 14.5835 77.1701 14.5295Z" fill="#3D67AD"/>
<path d="M81.331 14.5343C81.3067 14.5128 81.2871 14.4864 81.2735 14.4568C81.2599 14.4273 81.2526 14.3952 81.2522 14.3627C81.2509 14.3265 81.2553 14.2902 81.265 14.2553L84.0417 6.64327C84.069 6.53854 84.1322 6.44666 84.2205 6.38364C84.3087 6.32063 84.4164 6.29047 84.5246 6.29843H86.3854C86.4937 6.29079 86.6012 6.32107 86.6893 6.38404C86.7775 6.447 86.8408 6.5387 86.8683 6.64327L89.645 14.2553C89.6548 14.2902 89.6592 14.3265 89.6579 14.3627C89.6534 14.4274 89.6254 14.4883 89.5792 14.534C89.5331 14.5797 89.4718 14.6072 89.4068 14.6113H87.8567C87.7703 14.6155 87.6848 14.5925 87.6123 14.5456C87.5398 14.4987 87.484 14.4302 87.4527 14.3499L87.0229 13.1983H83.9001L83.4703 14.3499C83.4387 14.4313 83.3818 14.5005 83.308 14.5475C83.2342 14.5945 83.1473 14.6169 83.0598 14.6113H81.5097C81.4762 14.6119 81.4429 14.6053 81.4121 14.592C81.3813 14.5787 81.3536 14.5591 81.331 14.5343ZM84.3894 11.4164H86.511L85.4486 8.38829L84.3894 11.4164Z" fill="#3D67AD"/>
<path d="M90.6401 14.5231C90.6115 14.4964 90.5888 14.4641 90.5733 14.4282C90.5578 14.3923 90.5498 14.3537 90.5499 14.3146V6.59516C90.5488 6.55525 90.5562 6.51556 90.5718 6.47876C90.5873 6.44196 90.6106 6.40891 90.6401 6.38185C90.6674 6.35499 90.6999 6.3338 90.7355 6.31948C90.7712 6.30517 90.8093 6.29802 90.8477 6.29845H92.517C92.5565 6.29687 92.5959 6.30346 92.6328 6.31781C92.6696 6.33216 92.7031 6.35396 92.7311 6.38184C92.759 6.40971 92.7809 6.44306 92.7953 6.47977C92.8097 6.51649 92.8163 6.55578 92.8147 6.59516V12.7476H96.3915C96.4323 12.7468 96.4729 12.7541 96.5108 12.7693C96.5487 12.7845 96.5831 12.8071 96.612 12.8359C96.6408 12.8647 96.6636 12.899 96.6788 12.9367C96.694 12.9745 96.7014 13.0149 96.7005 13.0556V14.3146C96.702 14.3547 96.6949 14.3946 96.6796 14.4316C96.6643 14.4687 96.6413 14.5021 96.612 14.5295C96.5515 14.5836 96.4727 14.6128 96.3915 14.6113H90.8477C90.8089 14.6116 90.7704 14.6039 90.7347 14.5887C90.699 14.5736 90.6668 14.5512 90.6401 14.5231Z" fill="#3D67AD"/>
<path d="M51.2623 23.9427C50.6109 23.3845 50.2653 22.5869 50.2256 21.5497C50.2181 21.3284 50.2144 20.968 50.2144 20.4687C50.2144 19.9694 50.2181 19.6053 50.2256 19.3765C50.2578 18.3788 50.6055 17.6047 51.2687 17.054C51.9319 16.5034 52.8317 16.2286 53.9681 16.2297C54.6522 16.2143 55.3322 16.3393 55.9658 16.5969C56.472 16.7973 56.919 17.1223 57.2648 17.5416C57.5429 17.8763 57.7074 18.2901 57.7348 18.7237C57.7352 18.758 57.7285 18.7921 57.7152 18.8238C57.7019 18.8555 57.6823 18.8842 57.6575 18.9081C57.6337 18.9329 57.6049 18.9526 57.573 18.9658C57.5412 18.9791 57.5069 18.9856 57.4724 18.9851H55.6261C55.5617 18.9887 55.4976 18.9742 55.441 18.9434C55.3915 18.9102 55.3488 18.8677 55.3155 18.8183C55.2162 18.5911 55.0578 18.3946 54.8567 18.2489C54.5943 18.0757 54.2823 17.9924 53.9681 18.0116C53.0474 18.0116 52.5693 18.4927 52.5387 19.4358C52.5307 19.6571 52.5259 19.9988 52.5259 20.4575C52.5259 20.9162 52.5259 21.2594 52.5387 21.4904C52.5688 22.4955 53.0517 22.9985 53.9875 22.9996C54.3827 23.0206 54.7722 22.8981 55.0837 22.6548C55.3541 22.4249 55.4893 22.0763 55.4893 21.6091V21.3957H54.4285C54.3877 21.3966 54.3471 21.3892 54.3092 21.3741C54.2713 21.3589 54.2369 21.3363 54.208 21.3075C54.1791 21.2787 54.1564 21.2444 54.1412 21.2067C54.126 21.1689 54.1186 21.1285 54.1195 21.0878V20.1608C54.1188 20.1201 54.1263 20.0797 54.1416 20.0419C54.1569 20.0042 54.1796 19.9699 54.2084 19.941C54.2372 19.9122 54.2716 19.8893 54.3094 19.8739C54.3472 19.8585 54.3877 19.8508 54.4285 19.8512H57.466C57.5069 19.8508 57.5475 19.8585 57.5854 19.8739C57.6233 19.8893 57.6577 19.9121 57.6866 19.9409C57.7156 19.9697 57.7384 20.004 57.7539 20.0418C57.7694 20.0795 57.7771 20.12 57.7767 20.1608V21.5385C57.7928 22.1519 57.6289 22.7567 57.305 23.2787C56.9826 23.7753 56.52 24.1659 55.9754 24.4014C55.3432 24.6708 54.6605 24.8026 53.973 24.7879C52.8172 24.7837 51.9136 24.5019 51.2623 23.9427Z" fill="#3D67AD"/>
<path d="M59.1834 24.573C59.1549 24.5463 59.1322 24.514 59.1167 24.4781C59.1012 24.4422 59.0932 24.4036 59.0933 24.3645V16.6563C59.0923 16.5751 59.1222 16.4966 59.177 16.4366C59.2045 16.4074 59.238 16.3844 59.2753 16.3692C59.3125 16.3539 59.3525 16.3468 59.3927 16.3483H65.0186C65.0594 16.3475 65.1 16.3548 65.1379 16.37C65.1757 16.3852 65.2102 16.4078 65.239 16.4366C65.2679 16.4654 65.2907 16.4997 65.3059 16.5374C65.3211 16.5752 65.3285 16.6156 65.3276 16.6563V17.8319C65.3291 17.872 65.322 17.9119 65.3067 17.9489C65.2914 17.986 65.2684 18.0194 65.2391 18.0468C65.1788 18.1014 65.1 18.1312 65.0186 18.1302H61.2519V19.6379H64.7562C64.7971 19.6371 64.8378 19.6447 64.8757 19.6601C64.9136 19.6756 64.948 19.6986 64.9767 19.7277C65.0058 19.7563 65.0287 19.7906 65.0439 19.8284C65.0591 19.8662 65.0664 19.9067 65.0652 19.9474V21.0269C65.0659 21.0675 65.0583 21.108 65.0431 21.1457C65.0278 21.1834 65.0051 21.2178 64.9763 21.2466C64.9474 21.2755 64.9131 21.2983 64.8753 21.3137C64.8375 21.3291 64.797 21.3368 64.7562 21.3364H61.2519V22.8809H65.1151C65.156 22.8803 65.1965 22.8878 65.2344 22.903C65.2723 22.9183 65.3067 22.9409 65.3357 22.9696C65.3646 22.9983 65.3875 23.0325 65.403 23.0702C65.4185 23.1078 65.4262 23.1482 65.4258 23.1889V24.3645C65.427 24.4047 65.4196 24.4446 65.404 24.4817C65.3885 24.5187 65.3652 24.5521 65.3357 24.5794C65.2751 24.6335 65.1964 24.6627 65.1151 24.6612H59.3975C59.3576 24.6623 59.318 24.655 59.2811 24.6398C59.2442 24.6246 59.2109 24.6019 59.1834 24.573Z" fill="#3D67AD"/>
<path d="M66.8357 24.573C66.8073 24.5461 66.7849 24.5138 66.7696 24.4779C66.7544 24.442 66.7467 24.4034 66.7471 24.3645V16.6562C66.7457 16.5753 66.775 16.4968 66.8292 16.4365C66.8568 16.4073 66.8903 16.3843 66.9275 16.3691C66.9647 16.3539 67.0047 16.3468 67.0449 16.3483H68.3906C68.4728 16.3439 68.5545 16.3628 68.6263 16.4028C68.6981 16.4428 68.7571 16.5023 68.7963 16.5744L71.61 21.0108V16.6562C71.6076 16.5748 71.6377 16.4958 71.6937 16.4365C71.7209 16.4074 71.7541 16.3844 71.7911 16.3692C71.828 16.3539 71.8678 16.3468 71.9078 16.3483H73.4209C73.4611 16.3468 73.5011 16.3539 73.5383 16.3691C73.5755 16.3843 73.609 16.4073 73.6366 16.4365C73.6914 16.4966 73.7213 16.5751 73.7203 16.6562V24.3548C73.7213 24.436 73.6914 24.5145 73.6366 24.5746C73.609 24.6038 73.5755 24.6268 73.5383 24.642C73.5011 24.6572 73.4611 24.6643 73.4209 24.6628H72.0752C71.9932 24.6674 71.9116 24.6487 71.8398 24.609C71.768 24.5692 71.709 24.51 71.6695 24.4382L68.8687 20.1864V24.3661C68.8699 24.4062 68.8624 24.4462 68.8469 24.4832C68.8314 24.5203 68.8081 24.5536 68.7785 24.581C68.718 24.635 68.6393 24.6642 68.558 24.6628H67.0449C67.0057 24.663 66.9669 24.6551 66.9309 24.6396C66.8949 24.6242 66.8625 24.6015 66.8357 24.573Z" fill="#3D67AD"/>
<path d="M75.4299 24.573C75.4016 24.5462 75.3791 24.5138 75.3639 24.4779C75.3486 24.4421 75.341 24.4035 75.3414 24.3645V16.6563C75.3399 16.5753 75.3692 16.4969 75.4235 16.4366C75.451 16.4074 75.4845 16.3844 75.5217 16.3692C75.5589 16.3539 75.599 16.3468 75.6392 16.3483H81.2731C81.3139 16.3475 81.3545 16.3548 81.3924 16.37C81.4303 16.3852 81.4647 16.4078 81.4936 16.4366C81.5225 16.4654 81.5452 16.4997 81.5604 16.5374C81.5756 16.5752 81.583 16.6156 81.5821 16.6563V17.8319C81.5836 17.872 81.5765 17.9119 81.5612 17.9489C81.546 17.986 81.5229 18.0194 81.4936 18.0468C81.4333 18.1014 81.3545 18.1312 81.2731 18.1302H77.5064V19.6379H81.0107C81.0516 19.6375 81.0922 19.6452 81.1301 19.6606C81.168 19.676 81.2024 19.6988 81.2313 19.7276C81.2603 19.7564 81.2831 19.7907 81.2986 19.8285C81.3141 19.8662 81.3218 19.9067 81.3214 19.9474V21.0268C81.3223 21.0677 81.3148 21.1083 81.2993 21.1461C81.2838 21.1839 81.2606 21.2181 81.2312 21.2466C81.2028 21.276 81.1685 21.2992 81.1305 21.3147C81.0925 21.3302 81.0517 21.3376 81.0107 21.3364H77.4984V22.8809H81.3616C81.4025 22.8803 81.443 22.8878 81.4809 22.903C81.5188 22.9183 81.5532 22.9409 81.5822 22.9696C81.6111 22.9983 81.634 23.0325 81.6495 23.0701C81.665 23.1078 81.6727 23.1482 81.6723 23.1889V24.3645C81.6735 24.4047 81.666 24.4446 81.6505 24.4817C81.635 24.5187 81.6117 24.5521 81.5821 24.5794C81.5216 24.6334 81.4429 24.6627 81.3616 24.6612H75.6392C75.6001 24.6616 75.5613 24.654 75.5253 24.6388C75.4893 24.6236 75.4568 24.6012 75.4299 24.573Z" fill="#3D67AD"/>
<path d="M83.0822 24.573C83.0539 24.5462 83.0314 24.5138 83.0162 24.4779C83.001 24.4421 82.9933 24.4035 82.9937 24.3645V16.6563C82.9923 16.5753 83.0216 16.4969 83.0758 16.4366C83.1033 16.4074 83.1369 16.3844 83.1741 16.3692C83.2113 16.3539 83.2513 16.3468 83.2915 16.3483H86.5688C87.6183 16.3483 88.4387 16.5857 89.03 17.0605C89.6213 17.5352 89.9175 18.2046 89.9186 19.0685C89.9341 19.5676 89.799 20.0598 89.5306 20.4815C89.2659 20.8747 88.897 21.1872 88.465 21.3845L90.0747 24.2811C90.0971 24.3215 90.1098 24.3665 90.1117 24.4126C90.1113 24.4771 90.0853 24.5388 90.0393 24.5842C90.017 24.6093 89.9894 24.6292 89.9585 24.6425C89.9277 24.6558 89.8943 24.6622 89.8606 24.6612H88.1785C88.0745 24.6646 87.972 24.6355 87.8854 24.578C87.7988 24.5205 87.7325 24.4374 87.6956 24.3405L86.3853 21.763H85.2408V24.3629C85.242 24.4031 85.2346 24.443 85.219 24.4801C85.2035 24.5171 85.1802 24.5505 85.1507 24.5778C85.0907 24.6327 85.0116 24.6621 84.9302 24.6596H83.2915C83.2525 24.6602 83.2138 24.6528 83.1778 24.6379C83.1419 24.623 83.1093 24.601 83.0822 24.573ZM86.5575 20.018C86.8412 20.0379 87.1215 19.9464 87.3383 19.763C87.4299 19.6702 87.501 19.5594 87.547 19.4375C87.5931 19.3157 87.613 19.1856 87.6055 19.0557C87.6118 18.9234 87.5915 18.7912 87.5456 18.667C87.4997 18.5427 87.4292 18.4289 87.3383 18.3323C87.2339 18.2359 87.1107 18.1618 86.9764 18.1146C86.8421 18.0674 86.6996 18.0482 86.5575 18.0581H85.2344V20.018H86.5575Z" fill="#3D67AD"/>
<path d="M90.6401 24.5842C90.6161 24.5624 90.5969 24.5359 90.5836 24.5064C90.5703 24.4769 90.5632 24.445 90.5629 24.4126C90.5612 24.3764 90.565 24.3402 90.5741 24.3051L93.3525 16.6931C93.3797 16.5884 93.4429 16.4965 93.5312 16.4335C93.6194 16.3705 93.7271 16.3403 93.8354 16.3483H95.6945C95.8028 16.3403 95.9105 16.3705 95.9987 16.4335C96.087 16.4965 96.1502 16.5884 96.1774 16.6931L98.9558 24.3051C98.9649 24.3402 98.9687 24.3764 98.967 24.4126C98.9667 24.445 98.9596 24.4769 98.9463 24.5064C98.933 24.5359 98.9138 24.5624 98.8898 24.5842C98.8678 24.608 98.8412 24.6271 98.8116 24.6403C98.782 24.6535 98.75 24.6606 98.7175 24.6612H97.1674C97.081 24.6656 96.9954 24.6429 96.9227 24.5963C96.8499 24.5497 96.7936 24.4815 96.7618 24.4014L96.3207 23.2562H93.2011L92.773 24.4094C92.7411 24.4895 92.6848 24.5577 92.6121 24.6043C92.5393 24.6509 92.4537 24.6736 92.3673 24.6692H90.8172C90.7833 24.6683 90.75 24.6603 90.7195 24.6456C90.689 24.631 90.662 24.61 90.6401 24.5842ZM93.6985 21.4663H95.8217L94.7593 18.4446L93.6985 21.4663Z" fill="#3D67AD"/>
<path d="M100.939 24.5794C100.909 24.5521 100.886 24.5187 100.87 24.4817C100.855 24.4446 100.847 24.4047 100.849 24.3645V18.2842H98.756C98.6743 18.2866 98.595 18.2566 98.5355 18.2008C98.5062 18.1737 98.4832 18.1406 98.4679 18.1038C98.4526 18.067 98.4455 18.0273 98.447 17.9875V16.6563C98.4461 16.6156 98.4535 16.5752 98.4687 16.5374C98.4839 16.4997 98.5067 16.4654 98.5355 16.4366C98.5644 16.4078 98.5988 16.3852 98.6367 16.37C98.6746 16.3548 98.7152 16.3475 98.756 16.3483H105.229C105.269 16.3477 105.31 16.3552 105.348 16.3704C105.386 16.3857 105.42 16.4083 105.449 16.437C105.478 16.4657 105.501 16.4999 105.516 16.5376C105.532 16.5752 105.54 16.6156 105.539 16.6563V17.9875C105.54 18.0274 105.533 18.0671 105.517 18.1039C105.502 18.1407 105.479 18.1738 105.449 18.2008C105.39 18.2566 105.31 18.2866 105.229 18.2842H103.136V24.3645C103.137 24.4047 103.13 24.4446 103.114 24.4817C103.099 24.5187 103.075 24.5521 103.046 24.5794C102.986 24.6343 102.907 24.6637 102.825 24.6612H101.159C101.078 24.6627 100.999 24.6334 100.939 24.5794Z" fill="#3D67AD"/>
<path d="M106.672 24.573C106.644 24.5462 106.621 24.5139 106.606 24.4781C106.59 24.4422 106.582 24.4036 106.582 24.3645V16.645C106.581 16.6051 106.588 16.5654 106.604 16.5286C106.62 16.4918 106.643 16.4588 106.672 16.4317C106.7 16.4049 106.732 16.3837 106.768 16.3694C106.803 16.355 106.842 16.3479 106.88 16.3483H108.585C108.624 16.3465 108.664 16.3529 108.701 16.3672C108.738 16.3815 108.771 16.4032 108.799 16.4312C108.827 16.4591 108.849 16.4925 108.863 16.5294C108.878 16.5662 108.884 16.6056 108.882 16.645V24.3645C108.883 24.442 108.854 24.5169 108.8 24.573C108.773 24.6022 108.739 24.6252 108.702 24.6404C108.665 24.6556 108.625 24.6627 108.585 24.6612H106.883C106.844 24.6619 106.805 24.6544 106.768 24.6393C106.732 24.6241 106.699 24.6015 106.672 24.573Z" fill="#3D67AD"/>
<path d="M111.291 23.9619C110.639 23.4155 110.294 22.6136 110.254 21.5561C110.246 21.3348 110.242 20.9942 110.243 20.5344C110.244 20.0746 110.248 19.7303 110.254 19.5015C110.286 18.4579 110.634 17.6523 111.297 17.0845C111.96 16.5167 112.85 16.2318 113.966 16.2296C115.07 16.2296 115.955 16.5124 116.619 17.0781C117.283 17.6437 117.631 18.4494 117.662 19.4951C117.676 19.9554 117.684 20.297 117.684 20.528C117.684 20.759 117.676 21.107 117.662 21.5497C117.622 22.6114 117.278 23.4134 116.63 23.9555C115.982 24.4976 115.094 24.7729 113.966 24.7815C112.835 24.7815 111.943 24.5083 111.291 23.9619ZM114.951 22.6243C115.197 22.3751 115.328 21.9934 115.344 21.4791C115.36 21.0204 115.368 20.6916 115.368 20.4927C115.368 20.2938 115.36 19.9731 115.344 19.5304C115.328 19.0172 115.197 18.6338 114.951 18.3852C114.821 18.259 114.667 18.1607 114.498 18.0964C114.328 18.0321 114.147 18.0032 113.966 18.0115C113.782 18.0018 113.599 18.0299 113.426 18.0942C113.254 18.1585 113.097 18.2576 112.965 18.3852C112.719 18.6338 112.587 19.0172 112.572 19.5304C112.565 19.7528 112.56 20.0736 112.559 20.4927C112.558 20.9119 112.562 21.2407 112.572 21.4791C112.587 21.9939 112.719 22.3757 112.965 22.6243C113.097 22.7521 113.254 22.8514 113.426 22.916C113.598 22.9806 113.782 23.009 113.966 22.9996C114.147 23.0077 114.328 22.9785 114.498 22.914C114.667 22.8494 114.822 22.7508 114.951 22.6243Z" fill="#3D67AD"/>
<path d="M119.117 24.573C119.088 24.5462 119.065 24.5139 119.05 24.4781C119.034 24.4422 119.026 24.4035 119.026 24.3645V16.6563C119.024 16.5749 119.054 16.4959 119.11 16.4365C119.138 16.4075 119.171 16.3845 119.208 16.3693C119.245 16.3541 119.284 16.3469 119.324 16.3483H120.672C120.754 16.3443 120.835 16.3633 120.907 16.4033C120.979 16.4433 121.038 16.5026 121.077 16.5745L123.889 21.0108V16.6563C123.888 16.5751 123.918 16.4966 123.973 16.4365C124.001 16.4073 124.034 16.3844 124.071 16.3691C124.109 16.3539 124.149 16.3468 124.189 16.3483H125.702C125.742 16.3468 125.782 16.354 125.819 16.3692C125.855 16.3844 125.889 16.4074 125.916 16.4365C125.972 16.4959 126.002 16.5749 126 16.6563V24.3549C126.002 24.4363 125.972 24.5153 125.916 24.5746C125.889 24.6038 125.855 24.6267 125.819 24.6419C125.782 24.6572 125.742 24.6643 125.702 24.6628H124.355C124.273 24.6673 124.191 24.6486 124.12 24.6088C124.048 24.5691 123.99 24.5099 123.951 24.4383L121.148 20.1864V24.3661C121.15 24.4061 121.142 24.446 121.127 24.4831C121.112 24.5202 121.089 24.5536 121.06 24.581C120.999 24.635 120.92 24.6643 120.839 24.6628H119.324C119.285 24.6629 119.247 24.6549 119.211 24.6395C119.175 24.624 119.143 24.6014 119.117 24.573Z" fill="#3D67AD"/>
<path d="M51.1269 34.7416C50.5184 34.1417 50.2169 33.2286 50.2222 32.0021V26.7222C50.2174 26.6391 50.2451 26.5575 50.2995 26.4944C50.3263 26.4662 50.3588 26.444 50.3949 26.4294C50.431 26.4147 50.4698 26.4079 50.5087 26.4094H51.1349C51.1776 26.4064 51.2204 26.4127 51.2604 26.4279C51.3004 26.4431 51.3366 26.4668 51.3665 26.4973C51.3964 26.5278 51.4192 26.5645 51.4334 26.6047C51.4476 26.6449 51.4529 26.6877 51.4488 26.7302V32.0294C51.4488 32.8848 51.6468 33.5178 52.0428 33.9284C52.4388 34.339 53.0022 34.547 53.733 34.5523C54.4562 34.5523 55.0159 34.3422 55.4119 33.922C55.8078 33.5018 56.0058 32.8709 56.0058 32.0294V26.7222C56.001 26.6391 56.0287 26.5575 56.0831 26.4944C56.112 26.4655 56.1468 26.4429 56.1851 26.4283C56.2233 26.4136 56.2643 26.4072 56.3052 26.4094H56.9314C56.9713 26.4082 57.011 26.4151 57.0481 26.4297C57.0852 26.4444 57.1189 26.4664 57.1471 26.4944C57.1761 26.5246 57.1986 26.5604 57.2133 26.5996C57.2279 26.6387 57.2345 26.6804 57.2324 26.7222V32.0021C57.2324 33.2254 56.9298 34.1385 56.3246 34.7416C55.7193 35.3446 54.8554 35.6456 53.733 35.6445C52.6062 35.6445 51.7375 35.3435 51.1269 34.7416Z" fill="#3D67AD"/>
<path d="M58.9016 35.4313C58.8443 35.3694 58.8136 35.2877 58.8163 35.2035V34.6823C58.8097 34.5585 58.8418 34.4358 58.908 34.331C58.9692 34.2444 59.0046 34.1963 59.0126 34.1883L63.9045 27.5017H59.2364C59.1966 27.503 59.157 27.4962 59.12 27.4817C59.083 27.4672 59.0494 27.4453 59.0212 27.4174C58.993 27.3894 58.9708 27.356 58.956 27.3192C58.9413 27.2824 58.9343 27.243 58.9354 27.2034V26.7222C58.9333 26.6805 58.9399 26.6388 58.9545 26.5996C58.9692 26.5604 58.9917 26.5247 59.0207 26.4945C59.0489 26.4664 59.0826 26.4444 59.1197 26.4298C59.1568 26.4152 59.1965 26.4083 59.2364 26.4095H65.1117C65.1962 26.4068 65.2783 26.4373 65.3403 26.4945C65.3691 26.5248 65.3914 26.5606 65.4058 26.5997C65.4201 26.6389 65.4264 26.6806 65.424 26.7222V27.2419C65.4203 27.4082 65.3608 27.5686 65.255 27.6974L60.4115 34.4224H65.255C65.2969 34.4205 65.3387 34.427 65.378 34.4416C65.4173 34.4563 65.4532 34.4786 65.4836 34.5074C65.5113 34.5355 65.533 34.5689 65.5474 34.6055C65.5618 34.6422 65.5686 34.6814 65.5673 34.7208V35.2164C65.5686 35.2565 65.5612 35.2965 65.5456 35.3336C65.5301 35.3706 65.5067 35.404 65.4771 35.4313C65.4165 35.4863 65.337 35.5161 65.255 35.5147H59.1173C59.0775 35.5161 59.0379 35.5094 59.0008 35.4951C58.9637 35.4807 58.93 35.459 58.9016 35.4313Z" fill="#3D67AD"/>
<path d="M67.3156 35.4313C67.2633 35.372 67.2357 35.2952 67.2383 35.2163V26.7158C67.2335 26.6328 67.2612 26.5511 67.3156 26.488C67.3424 26.4598 67.3749 26.4377 67.411 26.423C67.4471 26.4083 67.4859 26.4015 67.5249 26.403H71.0887C72.0116 26.403 72.7091 26.6244 73.1813 27.067C73.4157 27.2898 73.5998 27.5598 73.7211 27.8591C73.8424 28.1583 73.8982 28.48 73.8847 28.8024C73.9001 29.198 73.8012 29.5896 73.5998 29.9308C73.3983 30.272 73.1028 30.5483 72.7483 30.7271C73.1486 30.9282 73.4843 31.2371 73.7173 31.6187C73.9503 32.0002 74.0713 32.4393 74.0666 32.8859C74.0724 33.3493 73.9576 33.8063 73.7334 34.2123C73.5053 34.618 73.1628 34.9481 72.7483 35.1618C72.2682 35.4067 71.7341 35.5275 71.195 35.5131H67.5249C67.4862 35.515 67.4475 35.5087 67.4114 35.4946C67.3753 35.4805 67.3427 35.4589 67.3156 35.4313ZM70.8923 30.2732C71.4589 30.2732 71.8882 30.1449 72.1801 29.8883C72.33 29.7539 72.4477 29.5878 72.5246 29.4021C72.6015 29.2164 72.6356 29.0158 72.6244 28.8153C72.6372 28.622 72.6042 28.4283 72.5282 28.25C72.4521 28.0717 72.3351 27.9137 72.1865 27.7888C71.8946 27.5546 71.4616 27.4375 70.8875 27.4375H68.4649V30.2732H70.8923ZM71.0243 34.4882C71.5813 34.4882 72.0175 34.3374 72.3362 34.0391C72.6414 33.7316 72.8125 33.3167 72.8125 32.8843C72.8125 32.4519 72.6414 32.037 72.3362 31.7295C72.0143 31.4344 71.5813 31.2868 71.0243 31.2868H68.4649V34.4946L71.0243 34.4882Z" fill="#3D67AD"/>
<path d="M76.0241 35.4312C75.9707 35.3726 75.9424 35.2955 75.9453 35.2163V26.7158C75.9409 26.6325 75.9692 26.5508 76.0241 26.488C76.0507 26.4596 76.0832 26.4372 76.1194 26.4225C76.1555 26.4079 76.1944 26.4012 76.2334 26.403H81.5985C81.6412 26.4 81.684 26.4063 81.724 26.4215C81.764 26.4367 81.8002 26.4604 81.8301 26.4909C81.8599 26.5214 81.8828 26.5581 81.897 26.5983C81.9112 26.6385 81.9165 26.6813 81.9124 26.7238V27.1921C81.914 27.2307 81.9072 27.2692 81.8924 27.3049C81.8777 27.3406 81.8554 27.3727 81.8271 27.399C81.764 27.4538 81.682 27.482 81.5985 27.4776H77.1461V30.3774H81.312C81.3538 30.3743 81.3958 30.3802 81.4351 30.3947C81.4744 30.4093 81.5101 30.4321 81.5397 30.4616C81.5694 30.4912 81.5923 30.5267 81.6069 30.5659C81.6215 30.6051 81.6274 30.6469 81.6243 30.6886V31.1312C81.6258 31.171 81.619 31.2106 81.6043 31.2476C81.5896 31.2846 81.5673 31.3182 81.5389 31.3462C81.5089 31.3749 81.4732 31.3973 81.4342 31.4119C81.3952 31.4265 81.3536 31.4331 81.312 31.4312H77.1461V34.4352H81.7031C81.745 34.4333 81.7869 34.4398 81.8261 34.4544C81.8654 34.469 81.9013 34.4914 81.9317 34.5202C81.9605 34.5505 81.9827 34.5863 81.9971 34.6255C82.0115 34.6647 82.0178 34.7063 82.0154 34.748V35.2163C82.0163 35.2564 82.0087 35.2963 81.9932 35.3333C81.9777 35.3703 81.9545 35.4037 81.9253 35.4312C81.8646 35.4862 81.7851 35.516 81.7031 35.5146H76.2302C76.1919 35.5162 76.1536 35.5096 76.1181 35.4952C76.0826 35.4808 76.0505 35.459 76.0241 35.4312Z" fill="#3D67AD"/>
<path d="M83.9226 35.4313C83.8691 35.3726 83.8408 35.2955 83.8437 35.2163V26.7158C83.8393 26.6325 83.8676 26.5509 83.9226 26.488C83.949 26.4598 83.9812 26.4376 84.0171 26.4229C84.0529 26.4082 84.0915 26.4015 84.1302 26.403H84.7451C84.7868 26.4011 84.8284 26.4077 84.8674 26.4223C84.9064 26.4369 84.942 26.4593 84.9721 26.488C85.0014 26.518 85.0241 26.5538 85.0388 26.593C85.0535 26.6322 85.0598 26.674 85.0574 26.7158V29.9604L88.5987 26.618C88.6647 26.5503 88.7438 26.4969 88.8313 26.4611C88.9188 26.4252 89.0128 26.4076 89.1074 26.4094H89.7609C89.8293 26.4118 89.8943 26.44 89.9427 26.4882C89.9911 26.5364 90.0193 26.6011 90.0217 26.6693C90.0233 26.7005 90.0183 26.7317 90.0073 26.761C89.9962 26.7902 89.9792 26.8169 89.9573 26.8393L85.8832 30.7672L90.2293 35.0736C90.2726 35.1241 90.2961 35.1885 90.2954 35.2548C90.2937 35.3235 90.2655 35.3889 90.2166 35.4373C90.1677 35.4857 90.1019 35.5134 90.033 35.5147H89.3537C89.2543 35.5196 89.1553 35.4998 89.0655 35.4569C88.9886 35.4116 88.9144 35.3618 88.8434 35.3078L85.0574 31.6188V35.2099C85.0584 35.2502 85.0507 35.2902 85.0349 35.3273C85.0191 35.3644 84.9955 35.3976 84.9657 35.4248C84.9059 35.4803 84.8268 35.5102 84.7451 35.5082H84.1302C84.0921 35.511 84.0538 35.5055 84.018 35.4922C83.9822 35.4789 83.9497 35.4581 83.9226 35.4313Z" fill="#3D67AD"/>
<path d="M91.7295 35.4312C91.676 35.3726 91.6477 35.2955 91.6506 35.2163V26.7157C91.6478 26.6371 91.6761 26.5605 91.7295 26.5024C91.7559 26.4742 91.7881 26.452 91.824 26.4373C91.8598 26.4226 91.8984 26.4158 91.9371 26.4174H92.5907C92.631 26.4131 92.6719 26.4179 92.7101 26.4314C92.7484 26.4448 92.7832 26.4667 92.8119 26.4953C92.8406 26.5239 92.8625 26.5585 92.8761 26.5967C92.8896 26.6348 92.8944 26.6755 92.8901 26.7157V35.2163C92.8919 35.256 92.8854 35.2956 92.871 35.3326C92.8566 35.3696 92.8346 35.4032 92.8064 35.4313C92.7783 35.4594 92.7445 35.4813 92.7074 35.4956C92.6702 35.51 92.6305 35.5164 92.5907 35.5146H91.9371C91.8985 35.5165 91.86 35.51 91.8241 35.4956C91.7883 35.4812 91.756 35.4593 91.7295 35.4312Z" fill="#3D67AD"/>
<path d="M96.2402 35.3077C95.7669 35.1223 95.3519 34.8145 95.0378 34.416C94.7738 34.073 94.6215 33.6577 94.6016 33.2259C94.6015 33.1918 94.6083 33.1581 94.6216 33.1267C94.6349 33.0953 94.6543 33.0669 94.6788 33.0431C94.7047 33.0177 94.7354 32.9978 94.7691 32.9846C94.8029 32.9713 94.839 32.965 94.8752 32.9661H95.5191C95.5943 32.9668 95.6671 32.9929 95.7255 33.0401C95.784 33.0873 95.8247 33.1527 95.841 33.2259C95.9363 33.6143 96.1771 33.9517 96.5139 34.169C96.8841 34.4331 97.4126 34.5651 98.0994 34.5651C98.8399 34.5651 99.3925 34.4352 99.7574 34.1754C99.933 34.0564 100.076 33.895 100.172 33.7062C100.268 33.5174 100.314 33.3075 100.306 33.096C100.317 32.8277 100.221 32.5662 100.039 32.3678C99.8103 32.1446 99.5357 31.9734 99.2342 31.8658C98.8823 31.7225 98.3537 31.5472 97.6487 31.3397C97.0947 31.1943 96.5582 30.9895 96.0487 30.7287C95.6868 30.5422 95.3791 30.266 95.1553 29.9267C94.9421 29.5625 94.8377 29.1452 94.8543 28.7238C94.8477 28.2764 94.9798 27.8379 95.2326 27.468C95.5085 27.0801 95.8892 26.7782 96.3304 26.5971C96.8668 26.372 97.4451 26.2627 98.027 26.2763C98.628 26.2595 99.2248 26.3819 99.7703 26.634C100.208 26.8355 100.587 27.1439 100.873 27.5305C101.109 27.8472 101.249 28.2245 101.277 28.618C101.278 28.654 101.271 28.6899 101.258 28.7233C101.244 28.7568 101.224 28.7872 101.199 28.8127C101.173 28.8382 101.143 28.8583 101.109 28.8717C101.075 28.8851 101.039 28.8915 101.003 28.8906H100.35C100.28 28.891 100.211 28.8684 100.155 28.8265C100.091 28.7776 100.045 28.7087 100.025 28.6308C99.9949 28.4402 99.9231 28.2585 99.8146 28.0988C99.7061 27.9391 99.5634 27.8053 99.3968 27.707C98.9874 27.454 98.5116 27.3283 98.0302 27.3461C97.4378 27.3461 96.9678 27.461 96.6201 27.6909C96.4512 27.8003 96.3142 27.9519 96.2226 28.1307C96.1311 28.3094 96.0883 28.509 96.0986 28.7094C96.0861 28.9774 96.1719 29.2408 96.34 29.4504C96.5466 29.6728 96.8008 29.8461 97.0837 29.9572C97.5623 30.1557 98.0525 30.3249 98.5517 30.464C99.1503 30.6208 99.7336 30.8301 100.295 31.0895C100.673 31.2604 100.999 31.5269 101.242 31.8626C101.464 32.2188 101.573 32.6336 101.555 33.0527C101.571 33.4228 101.493 33.7909 101.33 34.1238C101.168 34.4567 100.924 34.7439 100.622 34.9597C99.9994 35.4131 99.157 35.6403 98.0946 35.6413C97.4602 35.656 96.8294 35.5426 96.2402 35.3077Z" fill="#3D67AD"/>
<path d="M105.261 35.4313C105.233 35.403 105.211 35.3694 105.196 35.3325C105.182 35.2956 105.174 35.2561 105.176 35.2164V27.5274H102.656C102.617 27.529 102.577 27.5223 102.54 27.5079C102.503 27.4935 102.469 27.4716 102.441 27.4436C102.412 27.4156 102.39 27.3821 102.376 27.3452C102.361 27.3083 102.354 27.2687 102.355 27.2291V26.7222C102.353 26.6805 102.36 26.6388 102.374 26.5996C102.389 26.5605 102.412 26.5247 102.441 26.4945C102.469 26.4664 102.503 26.4444 102.54 26.4298C102.577 26.4152 102.616 26.4083 102.656 26.4095H108.923C108.964 26.4073 109.005 26.4137 109.043 26.4284C109.081 26.443 109.116 26.4655 109.145 26.4945C109.2 26.5573 109.228 26.639 109.224 26.7222V27.2291C109.225 27.2687 109.218 27.3083 109.204 27.3452C109.189 27.3821 109.167 27.4156 109.139 27.4436C109.11 27.4716 109.077 27.4935 109.04 27.5079C109.002 27.5223 108.963 27.529 108.923 27.5274H106.417V35.2164C106.418 35.2566 106.41 35.2967 106.394 35.3337C106.378 35.3708 106.355 35.4041 106.325 35.4313C106.264 35.4863 106.185 35.5161 106.103 35.5147H105.477C105.437 35.5161 105.397 35.5094 105.36 35.4951C105.323 35.4808 105.289 35.4591 105.261 35.4313Z" fill="#3D67AD"/>
<path d="M108.936 35.4457C108.911 35.4219 108.892 35.3935 108.878 35.3621C108.865 35.3307 108.858 35.2969 108.858 35.2628L108.884 35.1201L112.121 26.7029C112.148 26.6151 112.204 26.5389 112.28 26.487C112.356 26.4351 112.448 26.4106 112.54 26.4175H113.375C113.467 26.4109 113.558 26.4356 113.634 26.4875C113.71 26.5394 113.765 26.6153 113.792 26.7029L117.024 35.1121L117.05 35.2548C117.05 35.2896 117.042 35.3239 117.027 35.3554C117.012 35.3869 116.991 35.4149 116.965 35.4377C116.914 35.4866 116.847 35.5142 116.776 35.5147H116.162C116.092 35.5153 116.023 35.4944 115.965 35.4548C115.908 35.4152 115.864 35.3588 115.84 35.2933L115.107 33.4216H110.79L110.072 35.2933C110.047 35.3584 110.003 35.4144 109.946 35.4539C109.888 35.4935 109.82 35.5146 109.75 35.5147H109.124C109.09 35.5166 109.055 35.5115 109.023 35.4996C108.99 35.4877 108.961 35.4694 108.936 35.4457ZM111.168 32.3486H114.745L112.957 27.6797L111.168 32.3486Z" fill="#3D67AD"/>
<path d="M118.544 35.4313C118.491 35.3721 118.464 35.2952 118.466 35.2164V26.7158C118.462 26.6328 118.489 26.5511 118.544 26.4881C118.57 26.4599 118.603 26.4377 118.639 26.423C118.675 26.4084 118.714 26.4016 118.753 26.4031H119.328C119.397 26.3986 119.466 26.4166 119.524 26.4544C119.571 26.4936 119.615 26.5371 119.654 26.5843L124.028 33.2981V26.7222C124.025 26.6805 124.032 26.6386 124.046 26.5994C124.061 26.5602 124.084 26.5245 124.113 26.4945C124.141 26.4665 124.175 26.4445 124.211 26.4299C124.248 26.4152 124.288 26.4083 124.327 26.4095H124.912C124.955 26.4052 124.999 26.4106 125.04 26.4253C125.081 26.4399 125.118 26.4634 125.149 26.494C125.179 26.5247 125.203 26.5618 125.218 26.6027C125.232 26.6435 125.238 26.6871 125.233 26.7303V35.2116C125.235 35.2931 125.205 35.3721 125.148 35.4313C125.121 35.4611 125.088 35.4846 125.05 35.5004C125.013 35.5162 124.973 35.5238 124.932 35.5227H124.345C124.281 35.5271 124.217 35.5122 124.161 35.4799C124.105 35.4476 124.061 35.3994 124.033 35.3415L119.659 28.6934V35.2244C119.66 35.2641 119.653 35.3036 119.638 35.3405C119.624 35.3775 119.602 35.4111 119.574 35.4393C119.545 35.4671 119.512 35.4888 119.475 35.5031C119.438 35.5175 119.398 35.5241 119.358 35.5227H118.758C118.717 35.5241 118.677 35.5166 118.64 35.5008C118.603 35.485 118.57 35.4613 118.544 35.4313Z" fill="#3D67AD"/>
<path d="M50.5617 43.3047C50.5476 43.2909 50.5364 43.2744 50.529 43.2562C50.5215 43.238 50.5178 43.2185 50.5182 43.1988V39.1089C50.5173 39.089 50.5207 39.069 50.5282 39.0505C50.5357 39.032 50.5471 39.0152 50.5617 39.0015C50.5898 38.9748 50.6275 38.9604 50.6663 38.9614H51.1878C51.2076 38.9602 51.2275 38.9631 51.246 38.97C51.2646 38.9769 51.2815 38.9876 51.2957 39.0015C51.3094 39.0157 51.3201 39.0326 51.327 39.0511C51.3339 39.0695 51.3369 39.0892 51.3359 39.1089V43.1988C51.3365 43.2182 51.3333 43.2376 51.3264 43.2557C51.3195 43.2739 51.3091 43.2905 51.2957 43.3047C51.2819 43.3193 51.2652 43.3307 51.2465 43.3382C51.2279 43.3456 51.2079 43.349 51.1878 43.348H50.6663C50.6468 43.3482 50.6275 43.3445 50.6095 43.3371C50.5915 43.3296 50.5752 43.3186 50.5617 43.3047Z" fill="#3D67AD"/>
<path d="M52.4567 43.0112C52.1696 42.7085 52.0145 42.3048 52.0253 41.8885V41.7281C51.9999 41.2861 52.1451 40.8512 52.4309 40.5123C52.7376 40.2259 53.1422 40.0665 53.5626 40.0665C53.9829 40.0665 54.3875 40.2259 54.6942 40.5123C54.9736 40.8426 55.1169 41.2662 55.095 41.6976V41.8275C55.0953 41.8469 55.0916 41.8662 55.0842 41.8842C55.0767 41.9021 55.0656 41.9183 55.0515 41.9318C55.0367 41.9463 55.0191 41.9576 54.9997 41.9651C54.9803 41.9726 54.9596 41.9759 54.9388 41.9751H52.8752V42.0216C52.8752 42.2271 52.9412 42.4271 53.0636 42.5926C53.1202 42.6659 53.1935 42.7246 53.2775 42.7639C53.3615 42.8033 53.4537 42.8221 53.5465 42.8187C53.6585 42.8208 53.7695 42.7961 53.87 42.7467C53.9706 42.6974 54.0578 42.6247 54.1243 42.5348C54.1478 42.5024 54.1767 42.4742 54.2096 42.4514C54.2436 42.439 54.2798 42.4336 54.3159 42.4354H54.8616C54.8964 42.4354 54.9303 42.4466 54.9582 42.4675C54.9713 42.4773 54.9818 42.4902 54.9888 42.505C54.9958 42.5198 54.9991 42.5361 54.9984 42.5525C54.9822 42.686 54.9195 42.8098 54.8213 42.9021C54.6797 43.0531 54.5074 43.1723 54.3159 43.2518C54.0749 43.3542 53.8148 43.4045 53.5529 43.3993C53.3535 43.4102 53.1539 43.3815 52.9657 43.3149C52.7775 43.2483 52.6045 43.145 52.4567 43.0112ZM54.2274 41.4538V41.441C54.2376 41.2308 54.1726 41.0239 54.0439 40.8572C53.9833 40.7849 53.9067 40.7275 53.8201 40.6897C53.7335 40.6518 53.6393 40.6345 53.5449 40.639C53.4509 40.6345 53.3571 40.6518 53.2711 40.6897C53.185 40.7276 53.109 40.7849 53.0491 40.8572C52.9233 41.0252 52.8601 41.2316 52.8704 41.441V41.4538H54.2274Z" fill="#3D67AD"/>
<path d="M56.101 43.279C55.9348 43.2027 55.7916 43.0844 55.6857 42.9358C55.5847 42.7957 55.5316 42.627 55.5344 42.4546C55.5314 42.3221 55.5609 42.1909 55.6203 42.0724C55.6798 41.9539 55.7675 41.8516 55.8756 41.7745C56.1532 41.5817 56.4746 41.461 56.8109 41.4233L57.6608 41.2982V41.1699C57.6663 41.0971 57.657 41.0239 57.6335 40.9547C57.61 40.8856 57.5727 40.8218 57.524 40.7673C57.4032 40.6671 57.2475 40.6186 57.091 40.6326C56.9763 40.6274 56.8624 40.6529 56.761 40.7064C56.6882 40.7486 56.6207 40.7992 56.5598 40.8571L56.4583 40.9598C56.4536 40.9808 56.4417 40.9996 56.4247 41.0131C56.4077 41.0265 56.3867 41.0337 56.365 41.0335H55.8821C55.8463 41.0341 55.8117 41.0209 55.7855 40.9967C55.772 40.984 55.7614 40.9685 55.7545 40.9513C55.7475 40.9342 55.7444 40.9157 55.7453 40.8972C55.7593 40.7687 55.8121 40.6473 55.8966 40.5492C56.0166 40.4015 56.1707 40.2848 56.3457 40.2092C56.582 40.1048 56.839 40.0549 57.0974 40.0632C57.5835 40.0632 57.9387 40.1701 58.163 40.384C58.2752 40.4966 58.3629 40.631 58.4205 40.779C58.4782 40.9269 58.5045 41.0851 58.4978 41.2437V43.1827C58.4984 43.2022 58.4952 43.2215 58.4883 43.2397C58.4814 43.2578 58.4709 43.2745 58.4576 43.2886C58.4438 43.3031 58.427 43.3145 58.4084 43.3219C58.3898 43.3294 58.3698 43.3328 58.3497 43.3319H57.8346C57.8149 43.3321 57.7953 43.3284 57.7771 43.321C57.7588 43.3136 57.7422 43.3026 57.7283 43.2887C57.7143 43.2748 57.7033 43.2583 57.6959 43.2401C57.6884 43.2219 57.6847 43.2024 57.6849 43.1827V42.9422C57.5863 43.0795 57.4546 43.1898 57.3018 43.2629C57.1077 43.3537 56.8947 43.3971 56.6805 43.3896C56.4814 43.3972 56.2832 43.3594 56.101 43.279ZM57.4499 42.5909C57.6046 42.4141 57.6828 42.1834 57.6672 41.9494V41.8259L57.0475 41.9253C56.5646 41.9991 56.3344 42.1579 56.3344 42.4065C56.332 42.4671 56.3455 42.5273 56.3738 42.5811C56.402 42.6348 56.444 42.6803 56.4954 42.7128C56.6126 42.787 56.7494 42.8244 56.8881 42.8203C56.9927 42.8235 57.0967 42.8047 57.1935 42.7652C57.2903 42.7257 57.3777 42.6663 57.4499 42.5909Z" fill="#3D67AD"/>
<path d="M59.3346 43.3047C59.3205 43.2909 59.3093 43.2744 59.3019 43.2562C59.2944 43.238 59.2907 43.2185 59.2911 43.1988V40.2862C59.2904 40.2657 59.2938 40.2454 59.3013 40.2263C59.3088 40.2073 59.3201 40.19 59.3346 40.1755C59.3481 40.1616 59.3644 40.1506 59.3824 40.1431C59.4004 40.1357 59.4197 40.132 59.4392 40.1322H59.9479C59.9896 40.1315 60.03 40.147 60.0605 40.1755C60.0887 40.2055 60.1043 40.2451 60.104 40.2862V40.5396C60.208 40.4043 60.3436 40.2965 60.4991 40.2255C60.6545 40.1545 60.825 40.1225 60.9958 40.1322H61.2565C61.2763 40.1308 61.2962 40.1336 61.3149 40.1405C61.3335 40.1474 61.3504 40.1582 61.3644 40.1722C61.3785 40.1862 61.3893 40.2031 61.3963 40.2216C61.4032 40.2402 61.4061 40.26 61.4046 40.2798V40.7385C61.4052 40.7579 61.402 40.7772 61.3951 40.7954C61.3882 40.8136 61.3778 40.8302 61.3644 40.8443C61.3506 40.8589 61.3339 40.8703 61.3152 40.8778C61.2966 40.8853 61.2766 40.8886 61.2565 40.8876H60.7736C60.6896 40.8806 60.6051 40.8919 60.5259 40.9207C60.4467 40.9496 60.3748 40.9953 60.3151 41.0547C60.2555 41.1141 60.2096 41.1858 60.1807 41.2647C60.1517 41.3436 60.1404 41.4278 60.1475 41.5115V43.2036C60.1477 43.2233 60.144 43.2428 60.1365 43.261C60.1291 43.2792 60.118 43.2957 60.1041 43.3096C60.0902 43.3235 60.0736 43.3345 60.0553 43.3419C60.037 43.3493 60.0175 43.353 59.9978 43.3528H59.4456C59.4247 43.3533 59.4039 43.3493 59.3848 43.341C59.3656 43.3327 59.3484 43.3203 59.3346 43.3047Z" fill="#3D67AD"/>
<path d="M61.9328 43.3047C61.9187 43.2909 61.9076 43.2744 61.9001 43.2562C61.8926 43.238 61.889 43.2185 61.8893 43.1988V40.2797C61.8883 40.2598 61.8917 40.2398 61.8992 40.2213C61.9067 40.2027 61.9182 40.186 61.9328 40.1723C61.9467 40.159 61.9631 40.1486 61.9811 40.1417C61.999 40.1349 62.0182 40.1316 62.0374 40.1322H62.5525C62.5723 40.1308 62.5922 40.1336 62.6109 40.1405C62.6295 40.1474 62.6464 40.1582 62.6604 40.1722C62.6745 40.1862 62.6853 40.2031 62.6923 40.2216C62.6992 40.2402 62.7021 40.26 62.7006 40.2797V40.5332C62.825 40.3805 62.9836 40.2591 63.1636 40.1786C63.3437 40.0981 63.5401 40.0608 63.7373 40.0696C63.906 40.0619 64.0745 40.091 64.2308 40.155C64.3871 40.219 64.5274 40.3163 64.6419 40.4401C64.8789 40.7258 64.9985 41.0902 64.9767 41.4602V43.1956C64.9773 43.215 64.9741 43.2344 64.9672 43.2525C64.9603 43.2707 64.9498 43.2873 64.9365 43.3014C64.9224 43.3161 64.9054 43.3275 64.8865 43.335C64.8676 43.3424 64.8473 43.3458 64.827 43.3448H64.2701C64.2503 43.345 64.2308 43.3413 64.2125 43.3338C64.1943 43.3264 64.1777 43.3154 64.1637 43.3015C64.1498 43.2876 64.1388 43.2711 64.1313 43.2529C64.1239 43.2347 64.1201 43.2152 64.1204 43.1956V41.4971C64.1327 41.2954 64.0703 41.0962 63.9449 40.9373C63.8804 40.8692 63.8018 40.8159 63.7145 40.7813C63.6272 40.7467 63.5333 40.7315 63.4395 40.7369C63.345 40.733 63.2509 40.7492 63.1632 40.7843C63.0755 40.8194 62.9963 40.8727 62.9308 40.9405C62.7959 41.0938 62.7265 41.2935 62.7376 41.4971V43.1956C62.7383 43.215 62.735 43.2344 62.7281 43.2525C62.7212 43.2707 62.7108 43.2873 62.6974 43.3014C62.6836 43.316 62.6669 43.3274 62.6483 43.3349C62.6296 43.3424 62.6096 43.3458 62.5895 43.3448H62.0374C62.0182 43.3455 61.999 43.3424 61.981 43.3355C61.963 43.3286 61.9466 43.3181 61.9328 43.3047Z" fill="#3D67AD"/>
<path d="M65.6398 43.7698C65.6292 43.7573 65.6216 43.7426 65.6174 43.7268C65.6133 43.711 65.6126 43.6944 65.6156 43.6784L65.7766 42.6214C65.8008 42.4899 65.87 42.4241 65.981 42.4241H66.5573C66.5864 42.4253 66.6139 42.4374 66.6345 42.4579C66.6551 42.4784 66.6672 42.5058 66.6684 42.5348C66.6672 42.5644 66.6613 42.5937 66.6507 42.6214L66.2482 43.6463C66.2363 43.6918 66.2096 43.7322 66.1724 43.7611C66.1352 43.7901 66.0894 43.8061 66.0422 43.8067H65.7203C65.7049 43.8072 65.6896 43.8042 65.6756 43.7978C65.6616 43.7914 65.6494 43.7818 65.6398 43.7698Z" fill="#3D67AD"/>
<path d="M69.26 43.263C69.0801 43.1917 68.92 43.0784 68.7932 42.9326C68.7084 42.8452 68.6547 42.7325 68.6403 42.6118C68.6394 42.5936 68.6426 42.5753 68.6495 42.5584C68.6565 42.5415 68.6671 42.5264 68.6805 42.514C68.7065 42.4894 68.7413 42.4761 68.7771 42.4771H69.2858C69.303 42.4778 69.3198 42.4826 69.3349 42.4909C69.35 42.4993 69.3629 42.511 69.3727 42.5252L69.5111 42.6439C69.6663 42.7742 69.8635 42.8442 70.0665 42.8412C70.207 42.8474 70.3465 42.8141 70.4689 42.7449C70.5186 42.7185 70.5599 42.6789 70.5883 42.6305C70.6167 42.5821 70.6311 42.5267 70.6298 42.4707C70.6333 42.3969 70.6072 42.3248 70.5574 42.2702C70.4857 42.2033 70.3991 42.1544 70.3047 42.1274C70.1245 42.0688 69.9413 42.0201 69.7558 41.9815C69.4709 41.9384 69.2023 41.8217 68.9767 41.6431C68.8932 41.5662 68.8275 41.4721 68.7842 41.3675C68.7408 41.2628 68.7208 41.1499 68.7256 41.0368C68.7262 40.8696 68.7785 40.7066 68.8753 40.5701C68.9875 40.413 69.1405 40.2894 69.318 40.2124C69.5391 40.1143 69.7794 40.0667 70.0214 40.0729C70.27 40.0669 70.5172 40.1122 70.7474 40.206C70.9237 40.2768 71.0816 40.3864 71.2093 40.5268C71.2995 40.6145 71.3564 40.7307 71.3703 40.8556C71.3707 40.8733 71.3673 40.8909 71.3604 40.9072C71.3535 40.9235 71.3431 40.9381 71.3301 40.9502C71.3176 40.9631 71.3025 40.9733 71.2859 40.9802C71.2693 40.9871 71.2515 40.9905 71.2335 40.9903H70.7683C70.7481 40.9914 70.7279 40.9874 70.7096 40.9788C70.6913 40.9701 70.6755 40.9569 70.6637 40.9406C70.6149 40.9052 70.5682 40.8672 70.5236 40.8267C70.4601 40.7716 70.3884 40.7267 70.3111 40.6936C70.2196 40.6592 70.1223 40.6429 70.0246 40.6454C69.8993 40.6371 69.775 40.6716 69.6721 40.7433C69.6325 40.774 69.6008 40.8135 69.5792 40.8586C69.5577 40.9037 69.5471 40.9532 69.5481 41.0031C69.5458 41.0699 69.5662 41.1355 69.6061 41.1892C69.6733 41.2543 69.7557 41.3017 69.8459 41.3271C70.022 41.385 70.2023 41.4295 70.3852 41.4602C71.1289 41.6046 71.5007 41.928 71.5007 42.4306C71.5022 42.5714 71.4681 42.7104 71.4014 42.8346C71.3347 42.9588 71.2376 43.0642 71.1192 43.1411C70.8014 43.3395 70.4295 43.4342 70.0552 43.4121C69.7824 43.4202 69.5111 43.3693 69.26 43.263Z" fill="#3D67AD"/>
<path d="M72.1754 43.3047C72.1613 43.2909 72.1502 43.2745 72.1427 43.2562C72.1352 43.238 72.1315 43.2185 72.1319 43.1989V39.109C72.1312 39.0894 72.1346 39.0699 72.1418 39.0517C72.149 39.0335 72.1599 39.017 72.1738 39.0031C72.1877 38.9893 72.2043 38.9785 72.2226 38.9713C72.2408 38.9641 72.2604 38.9608 72.28 38.9614H72.845C72.8648 38.96 72.8847 38.9628 72.9033 38.9697C72.922 38.9766 72.9389 38.9875 72.9529 39.0015C72.967 39.0155 72.9778 39.0323 72.9848 39.0509C72.9917 39.0694 72.9945 39.0892 72.9931 39.109V40.5188C73.1138 40.373 73.2667 40.2569 73.4398 40.1796C73.6129 40.1022 73.8015 40.0657 73.9911 40.0729C74.1611 40.0657 74.3306 40.0953 74.4879 40.1599C74.6452 40.2244 74.7866 40.3222 74.9022 40.4466C75.1413 40.7301 75.2633 41.0936 75.2434 41.4635V43.1989C75.2441 43.2183 75.2408 43.2376 75.2339 43.2558C75.227 43.2739 75.2166 43.2906 75.2032 43.3047C75.1894 43.3192 75.1726 43.3306 75.154 43.338C75.1354 43.3455 75.1154 43.3489 75.0954 43.348H74.5287C74.5082 43.3488 74.4878 43.3453 74.4687 43.3379C74.4496 43.3304 74.4322 43.3191 74.4177 43.3047C74.4036 43.2909 74.3924 43.2745 74.385 43.2562C74.3775 43.238 74.3738 43.2185 74.3742 43.1989V41.4971C74.3861 41.2952 74.3231 41.096 74.1971 40.9374C74.1327 40.8692 74.054 40.816 73.9667 40.7813C73.8794 40.7467 73.7855 40.7315 73.6917 40.7369C73.5973 40.7332 73.5032 40.7494 73.4155 40.7845C73.3278 40.8196 73.2486 40.8728 73.183 40.9406C73.0493 41.0944 72.9806 41.2939 72.9915 41.4971V43.1956C72.9921 43.2151 72.9889 43.2344 72.982 43.2526C72.9751 43.2707 72.9646 43.2874 72.9513 43.3015C72.9374 43.316 72.9207 43.3274 72.9021 43.3348C72.8834 43.3423 72.8634 43.3457 72.8434 43.3448H72.2752C72.2567 43.3451 72.2384 43.3417 72.2212 43.3348C72.2041 43.3279 72.1885 43.3177 72.1754 43.3047Z" fill="#3D67AD"/>
<path d="M76.3875 43.279C76.2231 43.2021 76.0817 43.0838 75.9771 42.9358C75.8726 42.797 75.8161 42.6282 75.8161 42.4546C75.8133 42.3222 75.843 42.1911 75.9024 42.0726C75.9619 41.9541 76.0494 41.8519 76.1573 41.7746C76.4354 41.5815 76.7574 41.4608 77.0942 41.4233L77.9425 41.2982V41.1699C77.9478 41.0973 77.9386 41.0242 77.9154 40.9551C77.8922 40.886 77.8554 40.8222 77.8073 40.7674C77.6858 40.6674 77.5297 40.619 77.3727 40.6326C77.2607 40.6282 77.1495 40.6536 77.0507 40.7064C76.9779 40.7486 76.9104 40.7992 76.8495 40.8572L76.7465 40.9598C76.7423 40.9812 76.7306 41.0003 76.7135 41.0139C76.6963 41.0274 76.675 41.0344 76.6531 41.0336H76.1702C76.1345 41.0339 76.1 41.0207 76.0736 40.9967C76.0605 40.9838 76.0501 40.9683 76.0432 40.9512C76.0362 40.9341 76.0329 40.9157 76.0334 40.8973C76.0479 40.7685 76.1012 40.6472 76.1863 40.5492C76.306 40.4012 76.4602 40.2844 76.6354 40.2092C76.8712 40.1049 77.1277 40.055 77.3855 40.0633C77.8727 40.0633 78.2279 40.1702 78.4511 40.384C78.5634 40.4966 78.6511 40.6311 78.7087 40.779C78.7663 40.927 78.7926 41.0852 78.786 41.2437V43.1828C78.7866 43.2022 78.7833 43.2216 78.7764 43.2397C78.7695 43.2579 78.7591 43.2745 78.7457 43.2887C78.732 43.3032 78.7152 43.3147 78.6966 43.3221C78.6779 43.3296 78.6579 43.333 78.6379 43.332H78.1228C78.1032 43.332 78.0838 43.3281 78.0657 43.3206C78.0476 43.3131 78.0313 43.302 78.0175 43.2882C78.0037 43.2743 77.9928 43.2579 77.9855 43.2398C77.9781 43.2217 77.9745 43.2023 77.9747 43.1828V42.9422C77.8755 43.0796 77.7432 43.1899 77.59 43.263C77.3964 43.3538 77.184 43.3972 76.9702 43.3897C76.7701 43.3978 76.5707 43.3599 76.3875 43.279ZM77.7348 42.591C77.8896 42.4142 77.9677 42.1835 77.9521 41.9494V41.8259L77.3324 41.9254C76.857 41.9991 76.6193 42.1595 76.6193 42.4065C76.6169 42.4672 76.6305 42.5274 76.6587 42.5811C76.687 42.6349 76.7289 42.6803 76.7803 42.7129C76.8981 42.7871 77.0354 42.8245 77.1747 42.8203C77.279 42.8235 77.3828 42.8047 77.4793 42.7652C77.5758 42.7257 77.6629 42.6663 77.7348 42.591Z" fill="#3D67AD"/>
<path d="M79.6197 43.3047C79.6056 43.2909 79.5945 43.2744 79.587 43.2562C79.5796 43.238 79.5759 43.2185 79.5763 43.1988V40.2862C79.5755 40.2657 79.579 40.2454 79.5865 40.2263C79.5939 40.2073 79.6053 40.19 79.6197 40.1755C79.6336 40.1615 79.6501 40.1504 79.6684 40.1429C79.6866 40.1355 79.7062 40.1318 79.726 40.1322H80.2346C80.2563 40.1302 80.2781 40.133 80.2985 40.1404C80.3189 40.1478 80.3375 40.1595 80.3528 40.1748C80.3682 40.1901 80.38 40.2086 80.3874 40.229C80.3948 40.2493 80.3976 40.271 80.3956 40.2926V40.546C80.4999 40.4106 80.6358 40.3027 80.7915 40.2317C80.9472 40.1607 81.118 40.1287 81.289 40.1386H81.5481C81.5682 40.1375 81.5882 40.1404 81.607 40.1473C81.6259 40.1542 81.6431 40.1649 81.6576 40.1787C81.6712 40.193 81.6817 40.2099 81.6886 40.2284C81.6955 40.2468 81.6987 40.2665 81.6978 40.2862V40.7385C81.6978 40.7775 81.6835 40.8151 81.6576 40.8443C81.6435 40.8589 81.6265 40.8704 81.6076 40.8779C81.5887 40.8853 81.5684 40.8887 81.5481 40.8876H81.0652C80.9818 40.8818 80.8981 40.893 80.8192 40.9206C80.7403 40.9482 80.6679 40.9915 80.6065 41.048C80.5501 41.1095 80.5068 41.1816 80.4791 41.2602C80.4515 41.3387 80.44 41.4221 80.4455 41.5051V43.1972C80.4457 43.2167 80.442 43.2361 80.4347 43.2542C80.4273 43.2723 80.4165 43.2887 80.4027 43.3026C80.3889 43.3165 80.3725 43.3275 80.3545 43.335C80.3364 43.3425 80.317 43.3464 80.2974 43.3464H79.7453C79.7225 43.3499 79.6993 43.3479 79.6775 43.3406C79.6556 43.3334 79.6358 43.3211 79.6197 43.3047Z" fill="#3D67AD"/>
<path d="M82.4254 43.0112C82.1395 42.7077 81.9846 42.3046 81.9941 41.8885V41.7281C81.9687 41.2861 82.1138 40.8512 82.3997 40.5123C82.7064 40.2259 83.111 40.0665 83.5313 40.0665C83.9516 40.0665 84.3562 40.2259 84.6629 40.5123C84.9413 40.8431 85.0838 41.2665 85.0621 41.6976V41.8275C85.0625 41.8469 85.0588 41.8662 85.0513 41.8842C85.0438 41.9021 85.0327 41.9183 85.0187 41.9318C85.0041 41.9462 84.9867 41.9575 84.9676 41.9649C84.9485 41.9724 84.9281 41.9758 84.9076 41.9751H82.844V42.0216C82.8431 42.2274 82.9099 42.4279 83.0339 42.5926C83.0905 42.6659 83.1639 42.7246 83.2479 42.7639C83.3319 42.8033 83.4241 42.8221 83.5168 42.8187C83.6287 42.8208 83.7394 42.7961 83.8397 42.7467C83.94 42.6973 84.0269 42.6247 84.0931 42.5348C84.1165 42.5018 84.146 42.4735 84.18 42.4514C84.214 42.439 84.2501 42.4336 84.2863 42.4354H84.8303C84.8648 42.4347 84.8984 42.4461 84.9253 42.4675C84.9386 42.4771 84.9493 42.49 84.9563 42.5048C84.9634 42.5197 84.9665 42.5361 84.9655 42.5525C84.9502 42.686 84.888 42.8098 84.7901 42.9021C84.6481 43.0527 84.4759 43.1719 84.2846 43.2518C84.0437 43.3542 83.7836 43.4045 83.5216 43.3993C83.3222 43.4102 83.1227 43.3814 82.9345 43.3148C82.7463 43.2482 82.5733 43.145 82.4254 43.0112ZM84.1961 41.4538V41.441C84.2064 41.2308 84.1413 41.0239 84.0126 40.8572C83.9518 40.785 83.8752 40.7278 83.7887 40.69C83.7021 40.6522 83.608 40.6347 83.5136 40.639C83.4196 40.6344 83.3258 40.6517 83.2398 40.6895C83.1537 40.7274 83.0777 40.7848 83.0178 40.8572C82.8907 41.0246 82.8269 41.2313 82.8375 41.441V41.4538H84.1961Z" fill="#3D67AD"/>
<path d="M85.5901 43.7698C85.5799 43.7571 85.5725 43.7423 85.5683 43.7266C85.5642 43.7109 85.5633 43.6944 85.5659 43.6784L85.7269 42.6214C85.7526 42.4899 85.8203 42.4241 85.9313 42.4241H86.5092C86.5237 42.4244 86.5379 42.4275 86.5512 42.4333C86.5645 42.439 86.5764 42.4474 86.5864 42.4578C86.597 42.4677 86.6055 42.4796 86.6113 42.4928C86.6172 42.5061 86.6202 42.5203 86.6202 42.5348C86.6184 42.5645 86.6119 42.5937 86.6009 42.6214L86.1985 43.6463C86.1871 43.6918 86.1608 43.7323 86.1238 43.7613C86.0868 43.7903 86.0412 43.8063 85.9941 43.8067H85.6722C85.6565 43.8074 85.641 43.8044 85.6267 43.798C85.6124 43.7916 85.5999 43.7819 85.5901 43.7698Z" fill="#3D67AD"/>
<path d="M88.7902 39.5628C88.7761 39.5494 88.765 39.5331 88.7575 39.5152C88.75 39.4973 88.7464 39.478 88.7467 39.4586V39.0079C88.7458 38.9872 88.7492 38.9665 88.7567 38.9472C88.7642 38.9279 88.7756 38.9103 88.7902 38.8956C88.8037 38.8817 88.82 38.8707 88.838 38.8632C88.856 38.8558 88.8753 38.852 88.8948 38.8523H89.4663C89.4879 38.8503 89.5097 38.8531 89.5301 38.8605C89.5506 38.8678 89.5691 38.8796 89.5845 38.8949C89.5998 38.9102 89.6116 38.9287 89.619 38.949C89.6264 38.9694 89.6292 38.9911 89.6272 39.0127V39.4554C89.6274 39.475 89.6233 39.4945 89.6152 39.5125C89.6072 39.5305 89.5954 39.5466 89.5806 39.5596C89.5513 39.5869 89.5128 39.6024 89.4727 39.6029H88.9012C88.8809 39.6045 88.8605 39.6017 88.8414 39.5948C88.8222 39.5879 88.8048 39.577 88.7902 39.5628ZM88.8143 43.3014C88.8002 43.2877 88.7891 43.2712 88.7816 43.253C88.7742 43.2348 88.7705 43.2153 88.7709 43.1956V40.2797C88.7698 40.2598 88.7732 40.2398 88.7807 40.2212C88.7882 40.2027 88.7997 40.186 88.8143 40.1723C88.8285 40.159 88.8452 40.1486 88.8634 40.1417C88.8817 40.1348 88.9011 40.1316 88.9206 40.1322H89.4469C89.4665 40.132 89.486 40.1356 89.5041 40.143C89.5223 40.1503 89.5388 40.1611 89.5527 40.1748C89.5666 40.1886 89.5777 40.2049 89.5852 40.2229C89.5928 40.2409 89.5966 40.2602 89.5966 40.2797V43.1956C89.5969 43.2152 89.5931 43.2347 89.5857 43.2529C89.5782 43.2711 89.5672 43.2876 89.5533 43.3015C89.5393 43.3154 89.5227 43.3264 89.5045 43.3338C89.4862 43.3413 89.4667 43.345 89.4469 43.3447H88.9206C88.9011 43.3455 88.8816 43.3424 88.8633 43.3355C88.8451 43.3286 88.8284 43.3181 88.8143 43.3047V43.3014Z" fill="#3D67AD"/>
<path d="M90.4645 43.3047C90.4504 43.2909 90.4393 43.2744 90.4318 43.2562C90.4244 43.238 90.4207 43.2185 90.4211 43.1988V40.2797C90.4201 40.2598 90.4234 40.2398 90.4309 40.2213C90.4384 40.2027 90.4499 40.186 90.4645 40.1723C90.4787 40.159 90.4954 40.1486 90.5136 40.1417C90.5319 40.1348 90.5513 40.1316 90.5708 40.1322H91.0843C91.1042 40.1305 91.1243 40.1332 91.1431 40.14C91.1619 40.1468 91.179 40.1575 91.1933 40.1716C91.2075 40.1856 91.2185 40.2025 91.2255 40.2212C91.2326 40.2399 91.2354 40.2599 91.234 40.2797V40.5332C91.358 40.3806 91.5163 40.2591 91.6961 40.1786C91.8759 40.0981 92.0721 40.0608 92.269 40.0696C92.4378 40.0617 92.6063 40.0908 92.7626 40.1548C92.9189 40.2188 93.0592 40.3162 93.1736 40.4401C93.4106 40.7258 93.5303 41.0902 93.5084 41.4602V43.1956C93.5091 43.215 93.5058 43.2344 93.4989 43.2525C93.492 43.2707 93.4816 43.2873 93.4682 43.3014C93.4544 43.3159 93.4376 43.3273 93.419 43.3348C93.4004 43.3423 93.3804 43.3457 93.3604 43.3448H92.8018C92.7823 43.3451 92.7629 43.3414 92.7449 43.334C92.7269 43.3265 92.7107 43.3155 92.6972 43.3014C92.6831 43.2877 92.6719 43.2712 92.6645 43.253C92.657 43.2348 92.6533 43.2153 92.6537 43.1956V41.4971C92.6656 41.2952 92.6026 41.096 92.4766 40.9373C92.4122 40.8692 92.3335 40.8159 92.2462 40.7813C92.1589 40.7467 92.065 40.7315 91.9712 40.7369C91.8768 40.7331 91.7827 40.7493 91.695 40.7845C91.6073 40.8196 91.5281 40.8728 91.4625 40.9405C91.3288 41.0943 91.2601 41.2939 91.271 41.4971V43.1956C91.2709 43.2346 91.2566 43.2722 91.2307 43.3014C91.2167 43.3161 91.1996 43.3275 91.1808 43.335C91.1619 43.3424 91.1416 43.3458 91.1213 43.3448H90.5708C90.5513 43.3455 90.5318 43.3424 90.5135 43.3355C90.4953 43.3286 90.4786 43.3181 90.4645 43.3047Z" fill="#3D67AD"/>
<path d="M94.7302 43.263C94.5498 43.1917 94.3892 43.0784 94.2618 42.9326C94.1773 42.8452 94.1241 42.7324 94.1105 42.6118C94.1096 42.5936 94.1128 42.5754 94.1197 42.5585C94.1267 42.5416 94.1373 42.5264 94.1507 42.514C94.1632 42.5017 94.1781 42.4921 94.1944 42.4858C94.2107 42.4795 94.2282 42.4765 94.2457 42.4771H94.7544C94.7717 42.4775 94.7887 42.482 94.8038 42.4904C94.819 42.4988 94.8318 42.5108 94.8413 42.5252L94.9813 42.6439C95.0551 42.7058 95.1389 42.7546 95.2292 42.7883C95.3276 42.8245 95.4318 42.8425 95.5367 42.8412C95.6772 42.8473 95.8166 42.8139 95.9391 42.745C95.9885 42.7183 96.0297 42.6786 96.058 42.6303C96.0864 42.5819 96.101 42.5267 96.1001 42.4707C96.1032 42.3973 96.0779 42.3255 96.0292 42.2702C95.9569 42.2034 95.8698 42.1545 95.7749 42.1275C95.5948 42.0687 95.4116 42.0199 95.226 41.9815C94.9417 41.9382 94.6736 41.8215 94.4485 41.6431C94.3651 41.5662 94.2994 41.4722 94.256 41.3675C94.2126 41.2628 94.1927 41.15 94.1974 41.0368C94.1982 40.8699 94.2498 40.7072 94.3455 40.5701C94.4588 40.4134 94.6122 40.2898 94.7898 40.2124C95.0107 40.1138 95.2512 40.0661 95.4932 40.0729C95.7413 40.0669 95.9879 40.1123 96.2176 40.206C96.3941 40.2764 96.5522 40.3861 96.6795 40.5268C96.7701 40.6143 96.8271 40.7306 96.8405 40.8556C96.8401 40.8915 96.8255 40.9257 96.7999 40.951C96.7743 40.9762 96.7397 40.9903 96.7037 40.9903H96.2385C96.2181 40.9913 96.1977 40.9873 96.1792 40.9786C96.1607 40.9699 96.1446 40.9569 96.1322 40.9406C96.0841 40.9051 96.0379 40.8671 95.9938 40.8267C95.9299 40.7714 95.8577 40.7265 95.7797 40.6936C95.6888 40.6594 95.592 40.6431 95.4948 40.6455C95.3691 40.6374 95.2443 40.6718 95.1407 40.7433C95.1011 40.774 95.0694 40.8135 95.0478 40.8586C95.0263 40.9037 95.0157 40.9532 95.0167 41.0032C95.0142 41.0702 95.0352 41.136 95.0763 41.1892C95.1429 41.2543 95.2248 41.3018 95.3145 41.3271C95.4907 41.3849 95.6709 41.4294 95.8538 41.4603C96.5974 41.6046 96.9693 41.9281 96.9693 42.4306C96.9711 42.5713 96.9373 42.7102 96.8709 42.8345C96.8045 42.9587 96.7076 43.0642 96.5894 43.1411C96.2716 43.3393 95.8997 43.4341 95.5254 43.4122C95.2526 43.4203 94.9814 43.3694 94.7302 43.263Z" fill="#3D67AD"/>
<path d="M97.6437 44.4771C97.6291 44.4634 97.6176 44.4467 97.6101 44.4282C97.6026 44.4096 97.5993 44.3897 97.6003 44.3697V40.2798C97.5993 40.2598 97.6026 40.2398 97.6101 40.2213C97.6176 40.2027 97.6291 40.186 97.6437 40.1723C97.6719 40.1457 97.7095 40.1312 97.7484 40.1322H98.2458C98.2663 40.1315 98.2867 40.1349 98.3058 40.1424C98.3249 40.1498 98.3423 40.1611 98.3568 40.1755C98.3708 40.1891 98.3819 40.2053 98.3893 40.2232C98.3968 40.2411 98.4005 40.2604 98.4003 40.2798V40.5268C98.5125 40.374 98.6617 40.252 98.8339 40.1721C99.0061 40.0922 99.1959 40.0569 99.3854 40.0697C99.5658 40.0578 99.7465 40.0869 99.9139 40.155C100.081 40.2231 100.231 40.3283 100.351 40.4626C100.588 40.7622 100.715 41.1334 100.712 41.5148C100.712 41.5645 100.712 41.6399 100.712 41.7377C100.712 41.8355 100.712 41.9109 100.712 41.9606C100.717 42.3403 100.591 42.7102 100.354 43.008C100.234 43.1429 100.085 43.2488 99.9175 43.3177C99.7502 43.3866 99.5694 43.4167 99.3886 43.4057C99.2067 43.4157 99.0251 43.381 98.8598 43.3047C98.6944 43.2283 98.5505 43.1127 98.4405 42.9679V44.3697C98.4417 44.3894 98.4388 44.4091 98.4319 44.4277C98.4249 44.4462 98.4142 44.463 98.4003 44.4771C98.386 44.4908 98.3691 44.5014 98.3505 44.5083C98.332 44.5152 98.3122 44.5182 98.2924 44.5172H97.7516C97.7318 44.5181 97.7121 44.5151 97.6935 44.5082C97.675 44.5013 97.6581 44.4907 97.6437 44.4771ZM99.8571 41.9238C99.8603 41.8618 99.8603 41.7997 99.8571 41.7377C99.8603 41.6763 99.8603 41.6147 99.8571 41.5533C99.8281 41.0101 99.5947 40.7385 99.1568 40.7385C99.057 40.7313 98.9569 40.7484 98.8652 40.7883C98.7735 40.8283 98.6929 40.8899 98.6305 40.9678C98.5112 41.1287 98.4459 41.3229 98.4438 41.5228C98.4438 41.5725 98.4438 41.6511 98.4438 41.7586C98.4438 41.866 98.4438 41.9462 98.4438 41.9991C98.4469 42.1904 98.5144 42.3751 98.6353 42.5236C98.7 42.5968 98.7806 42.6544 98.871 42.6919C98.9613 42.7294 99.0591 42.7459 99.1568 42.7401C99.5958 42.7391 99.8292 42.4669 99.8571 41.9238Z" fill="#3D67AD"/>
<path d="M101.42 39.5628C101.406 39.5494 101.395 39.5331 101.387 39.5152C101.38 39.4973 101.376 39.478 101.377 39.4586V39.0079C101.376 38.9872 101.379 38.9665 101.387 38.9472C101.394 38.9279 101.405 38.9103 101.42 38.8956C101.434 38.8817 101.45 38.8707 101.468 38.8632C101.486 38.8558 101.505 38.852 101.525 38.8523H102.096C102.118 38.8503 102.14 38.8531 102.16 38.8605C102.18 38.8678 102.199 38.8796 102.214 38.8949C102.23 38.9102 102.241 38.9287 102.249 38.949C102.256 38.9694 102.259 38.9911 102.257 39.0127V39.4554C102.257 39.475 102.253 39.4945 102.245 39.5125C102.237 39.5305 102.225 39.5466 102.21 39.5596C102.181 39.5869 102.143 39.6024 102.103 39.6029H101.531C101.511 39.6045 101.49 39.6017 101.471 39.5948C101.452 39.5879 101.435 39.577 101.42 39.5628ZM101.444 43.3014C101.43 43.2877 101.419 43.2712 101.412 43.253C101.404 43.2348 101.4 43.2153 101.401 43.1956V40.2797C101.4 40.2598 101.403 40.2398 101.411 40.2212C101.418 40.2027 101.43 40.186 101.444 40.1723C101.458 40.159 101.475 40.1486 101.493 40.1417C101.512 40.1348 101.531 40.1316 101.55 40.1322H102.077C102.096 40.1318 102.116 40.1355 102.134 40.143C102.152 40.1504 102.168 40.1615 102.181 40.1755C102.195 40.189 102.206 40.2052 102.214 40.2232C102.221 40.2411 102.225 40.2603 102.225 40.2797V43.1956C102.225 43.2153 102.222 43.2348 102.214 43.253C102.207 43.2712 102.196 43.2877 102.181 43.3014C102.168 43.3155 102.152 43.3265 102.134 43.334C102.116 43.3414 102.096 43.3451 102.077 43.3447H101.55C101.531 43.3455 101.511 43.3424 101.493 43.3355C101.475 43.3286 101.458 43.3181 101.444 43.3047V43.3014Z" fill="#3D67AD"/>
<path d="M103.088 43.3047C103.073 43.2909 103.062 43.2744 103.055 43.2562C103.047 43.238 103.044 43.2185 103.044 43.1988V40.2862C103.043 40.2658 103.047 40.2454 103.054 40.2264C103.062 40.2073 103.073 40.19 103.088 40.1755C103.101 40.1616 103.117 40.1506 103.135 40.1431C103.153 40.1357 103.173 40.132 103.192 40.1322H103.701C103.721 40.1314 103.742 40.1348 103.761 40.1422C103.78 40.1497 103.797 40.161 103.812 40.1755C103.826 40.19 103.838 40.2073 103.845 40.2264C103.853 40.2454 103.856 40.2658 103.855 40.2862V40.5396C103.96 40.4044 104.096 40.2967 104.251 40.2257C104.407 40.1547 104.578 40.1226 104.749 40.1322H105.009C105.029 40.1308 105.049 40.1336 105.068 40.1405C105.086 40.1474 105.103 40.1583 105.117 40.1723C105.131 40.1863 105.142 40.2031 105.149 40.2217C105.156 40.2402 105.159 40.26 105.158 40.2798V40.7385C105.158 40.7579 105.155 40.7772 105.148 40.7954C105.141 40.8136 105.131 40.8302 105.117 40.8443C105.104 40.8589 105.087 40.8703 105.068 40.8778C105.05 40.8853 105.03 40.8886 105.009 40.8876H104.527C104.442 40.88 104.358 40.8909 104.278 40.9196C104.199 40.9482 104.127 40.9939 104.067 41.0535C104.007 41.113 103.961 41.1849 103.932 41.264C103.904 41.3432 103.893 41.4277 103.9 41.5116V43.2036C103.9 43.2433 103.885 43.2813 103.857 43.3095C103.843 43.3236 103.827 43.3346 103.808 43.3421C103.79 43.3495 103.77 43.3532 103.751 43.3528H103.199C103.178 43.3534 103.157 43.3493 103.138 43.341C103.118 43.3327 103.101 43.3203 103.088 43.3047Z" fill="#3D67AD"/>
<path d="M105.893 43.0112C105.606 42.7085 105.451 42.3048 105.462 41.8885V41.7281C105.436 41.2861 105.582 40.8512 105.867 40.5123C106.174 40.2259 106.579 40.0665 106.999 40.0665C107.419 40.0665 107.824 40.2259 108.131 40.5123C108.409 40.8443 108.55 41.2692 108.525 41.7008V41.8307C108.525 41.8501 108.522 41.8694 108.514 41.8874C108.507 41.9053 108.496 41.9215 108.482 41.935C108.467 41.9495 108.449 41.9609 108.43 41.9683C108.41 41.9758 108.39 41.9792 108.369 41.9783H106.312V42.0216C106.312 42.2271 106.378 42.4272 106.5 42.5926C106.557 42.6659 106.63 42.7246 106.714 42.764C106.798 42.8033 106.89 42.8221 106.983 42.8187C107.095 42.8207 107.205 42.7959 107.306 42.7466C107.406 42.6972 107.493 42.6246 107.559 42.5348C107.583 42.5018 107.612 42.4735 107.646 42.4514C107.68 42.4388 107.715 42.4334 107.751 42.4354H108.296C108.331 42.4354 108.365 42.4466 108.393 42.4675C108.406 42.4773 108.417 42.4902 108.424 42.505C108.431 42.5198 108.434 42.5361 108.433 42.5525C108.417 42.6861 108.354 42.8098 108.256 42.9021C108.115 43.0531 107.942 43.1723 107.751 43.2518C107.51 43.3542 107.25 43.4045 106.988 43.3993C106.789 43.41 106.589 43.3812 106.401 43.3146C106.214 43.248 106.041 43.1448 105.893 43.0112ZM107.664 41.4538V41.441C107.674 41.2311 107.61 41.0245 107.482 40.8572C107.419 40.7884 107.342 40.7334 107.256 40.6959C107.17 40.6583 107.077 40.6389 106.984 40.6389C106.89 40.6389 106.797 40.6583 106.712 40.6959C106.626 40.7334 106.549 40.7884 106.486 40.8572C106.36 41.0252 106.297 41.2316 106.307 41.441V41.4538H107.664Z" fill="#3D67AD"/>
</svg>
